G04 #@! TF.GenerationSoftware,KiCad,Pcbnew,9.0.2+dfsg-1*
G04 #@! TF.CreationDate,2025-08-15T17:40:48+02:00*
G04 #@! TF.ProjectId,ulx5m-gs,756c7835-6d2d-4677-932e-6b696361645f,rev?*
G04 #@! TF.SameCoordinates,Original*
G04 #@! TF.FileFunction,Profile,NP*
%FSLAX46Y46*%
G04 Gerber Fmt 4.6, Leading zero omitted, Abs format (unit mm)*
G04 Created by KiCad (PCBNEW 9.0.2+dfsg-1) date 2025-08-15 17:40:48*
%MOMM*%
%LPD*%
G01*
G04 APERTURE LIST*
G04 #@! TA.AperFunction,Profile*
%ADD10C,0.100000*%
G04 #@! TD*
G04 APERTURE END LIST*
D10*
X62710000Y-57480000D02*
X110710000Y-57480000D01*
X98772500Y-87042500D02*
G75*
G02*
X97072500Y-87042500I-850000J0D01*
G01*
X97072500Y-87042500D02*
G75*
G02*
X98772500Y-87042500I850000J0D01*
G01*
X62710000Y-97480000D02*
X110710000Y-97480000D01*
X114210000Y-93980000D02*
G75*
G02*
X110710000Y-97480000I-3500000J0D01*
G01*
X110710000Y-57480000D02*
G75*
G02*
X114210000Y-60980000I0J-3500000D01*
G01*
X114210000Y-93980000D02*
X114210000Y-60980000D01*
X81047500Y-69317500D02*
G75*
G02*
X79347500Y-69317500I-850000J0D01*
G01*
X79347500Y-69317500D02*
G75*
G02*
X81047500Y-69317500I850000J0D01*
G01*
X59210000Y-60980000D02*
G75*
G02*
X62710000Y-57480000I3500000J0D01*
G01*
X80622500Y-81962500D02*
G75*
G02*
X79772500Y-81962500I-425000J0D01*
G01*
X79772500Y-81962500D02*
G75*
G02*
X80622500Y-81962500I425000J0D01*
G01*
X98347500Y-71857500D02*
G75*
G02*
X97497500Y-71857500I-425000J0D01*
G01*
X97497500Y-71857500D02*
G75*
G02*
X98347500Y-71857500I425000J0D01*
G01*
X62710000Y-97480000D02*
G75*
G02*
X59210000Y-93980000I0J3500000D01*
G01*
X81047500Y-87042500D02*
G75*
G02*
X79347500Y-87042500I-850000J0D01*
G01*
X79347500Y-87042500D02*
G75*
G02*
X81047500Y-87042500I850000J0D01*
G01*
X98772500Y-69317500D02*
G75*
G02*
X97072500Y-69317500I-850000J0D01*
G01*
X97072500Y-69317500D02*
G75*
G02*
X98772500Y-69317500I850000J0D01*
G01*
X59210000Y-60980000D02*
X59210000Y-93980000D01*
M02*
