G04 #@! TF.GenerationSoftware,KiCad,Pcbnew,9.0.2+dfsg-1*
G04 #@! TF.CreationDate,2025-08-15T17:40:47+02:00*
G04 #@! TF.ProjectId,ulx5m-gs,756c7835-6d2d-4677-932e-6b696361645f,rev?*
G04 #@! TF.SameCoordinates,Original*
G04 #@! TF.FileFunction,Paste,Top*
G04 #@! TF.FilePolarity,Positive*
%FSLAX46Y46*%
G04 Gerber Fmt 4.6, Leading zero omitted, Abs format (unit mm)*
G04 Created by KiCad (PCBNEW 9.0.2+dfsg-1) date 2025-08-15 17:40:47*
%MOMM*%
%LPD*%
G01*
G04 APERTURE LIST*
G04 Aperture macros list*
%AMRoundRect*
0 Rectangle with rounded corners*
0 $1 Rounding radius*
0 $2 $3 $4 $5 $6 $7 $8 $9 X,Y pos of 4 corners*
0 Add a 4 corners polygon primitive as box body*
4,1,4,$2,$3,$4,$5,$6,$7,$8,$9,$2,$3,0*
0 Add four circle primitives for the rounded corners*
1,1,$1+$1,$2,$3*
1,1,$1+$1,$4,$5*
1,1,$1+$1,$6,$7*
1,1,$1+$1,$8,$9*
0 Add four rect primitives between the rounded corners*
20,1,$1+$1,$2,$3,$4,$5,0*
20,1,$1+$1,$4,$5,$6,$7,0*
20,1,$1+$1,$6,$7,$8,$9,0*
20,1,$1+$1,$8,$9,$2,$3,0*%
G04 Aperture macros list end*
%ADD10C,0.150000*%
%ADD11C,0.100000*%
%ADD12RoundRect,0.110000X0.160000X-0.110000X0.160000X0.110000X-0.160000X0.110000X-0.160000X-0.110000X0*%
%ADD13RoundRect,0.110000X0.110000X0.160000X-0.110000X0.160000X-0.110000X-0.160000X0.110000X-0.160000X0*%
%ADD14RoundRect,0.115000X-0.145000X0.115000X-0.145000X-0.115000X0.145000X-0.115000X0.145000X0.115000X0*%
%ADD15RoundRect,0.193750X-0.231250X0.193750X-0.231250X-0.193750X0.231250X-0.193750X0.231250X0.193750X0*%
%ADD16RoundRect,0.115000X0.145000X-0.115000X0.145000X0.115000X-0.145000X0.115000X-0.145000X-0.115000X0*%
%ADD17C,0.300000*%
%ADD18R,1.050000X0.950000*%
%ADD19RoundRect,0.110000X-0.160000X0.110000X-0.160000X-0.110000X0.160000X-0.110000X0.160000X0.110000X0*%
%ADD20RoundRect,0.225000X0.450000X-0.225000X0.450000X0.225000X-0.450000X0.225000X-0.450000X-0.225000X0*%
%ADD21RoundRect,0.110000X-0.110000X-0.160000X0.110000X-0.160000X0.110000X0.160000X-0.110000X0.160000X0*%
%ADD22RoundRect,0.110000X-0.035355X0.190919X-0.190919X0.035355X0.035355X-0.190919X0.190919X-0.035355X0*%
%ADD23RoundRect,0.125000X0.125000X0.175000X-0.125000X0.175000X-0.125000X-0.175000X0.125000X-0.175000X0*%
%ADD24RoundRect,0.122500X0.147500X-0.122500X0.147500X0.122500X-0.147500X0.122500X-0.147500X-0.122500X0*%
%ADD25R,0.200000X0.900000*%
%ADD26R,0.500000X0.900000*%
%ADD27O,0.900000X1.500000*%
%ADD28O,0.900000X2.000000*%
%ADD29R,0.950000X1.050000*%
%ADD30RoundRect,0.250000X-0.270000X0.270000X-0.270000X-0.270000X0.270000X-0.270000X0.270000X0.270000X0*%
%ADD31RoundRect,0.037500X-0.037500X0.350000X-0.037500X-0.350000X0.037500X-0.350000X0.037500X0.350000X0*%
%ADD32RoundRect,0.037500X-0.350000X0.037500X-0.350000X-0.037500X0.350000X-0.037500X0.350000X0.037500X0*%
%ADD33RoundRect,0.225000X-0.250000X0.225000X-0.250000X-0.225000X0.250000X-0.225000X0.250000X0.225000X0*%
%ADD34RoundRect,0.137500X-0.137500X0.312500X-0.137500X-0.312500X0.137500X-0.312500X0.137500X0.312500X0*%
%ADD35RoundRect,0.100000X0.450000X0.100000X-0.450000X0.100000X-0.450000X-0.100000X0.450000X-0.100000X0*%
%ADD36RoundRect,0.150000X0.150000X0.150000X-0.150000X0.150000X-0.150000X-0.150000X0.150000X-0.150000X0*%
%ADD37R,0.103200X0.712800*%
%ADD38R,0.103200X0.408000*%
%ADD39R,0.992200X0.154000*%
%ADD40R,0.408000X0.154000*%
G04 #@! TA.AperFunction,Profile*
%ADD41C,0.100000*%
G04 #@! TD*
G04 APERTURE END LIST*
D10*
X78947500Y-68067500D02*
X99172500Y-68067500D01*
X99172500Y-88292500D01*
X78947500Y-88292500D01*
X78947500Y-68067500D01*
D11*
X69176602Y-67325000D02*
X68073401Y-67325000D01*
X68073401Y-66727000D01*
X69176602Y-66727000D01*
X69176602Y-67325000D01*
G36*
X69176602Y-67325000D02*
G01*
X68073401Y-67325000D01*
X68073401Y-66727000D01*
X69176602Y-66727000D01*
X69176602Y-67325000D01*
G37*
X69176602Y-68823000D02*
X68073401Y-68823000D01*
X68073401Y-68225000D01*
X69176602Y-68225000D01*
X69176602Y-68823000D01*
G36*
X69176602Y-68823000D02*
G01*
X68073401Y-68823000D01*
X68073401Y-68225000D01*
X69176602Y-68225000D01*
X69176602Y-68823000D01*
G37*
D12*
X73810000Y-95090000D03*
X73810000Y-94070000D03*
D13*
X101270000Y-70740000D03*
X100250000Y-70740000D03*
D14*
X93870000Y-90930000D03*
X93870000Y-91890000D03*
D15*
X107230000Y-86352500D03*
X107230000Y-87927500D03*
D16*
X76760000Y-95630000D03*
X76760000Y-94670000D03*
D17*
X82260000Y-71380000D03*
X83060000Y-71380000D03*
X83860000Y-71380000D03*
X84660000Y-71380000D03*
X85460000Y-71380000D03*
X86260000Y-71380000D03*
X87060000Y-71380000D03*
X87860000Y-71380000D03*
X88660000Y-71380000D03*
X89460000Y-71380000D03*
X90260000Y-71380000D03*
X91060000Y-71380000D03*
X91860000Y-71380000D03*
X92660000Y-71380000D03*
X93460000Y-71380000D03*
X94260000Y-71380000D03*
X95060000Y-71380000D03*
X95860000Y-71380000D03*
X82260000Y-72180000D03*
X83060000Y-72180000D03*
X83860000Y-72180000D03*
X84660000Y-72180000D03*
X85460000Y-72180000D03*
X86260000Y-72180000D03*
X87060000Y-72180000D03*
X87860000Y-72180000D03*
X88660000Y-72180000D03*
X89460000Y-72180000D03*
X90260000Y-72180000D03*
X91060000Y-72180000D03*
X91860000Y-72180000D03*
X92660000Y-72180000D03*
X93460000Y-72180000D03*
X94260000Y-72180000D03*
X95060000Y-72180000D03*
X95860000Y-72180000D03*
X82260000Y-72980000D03*
X83060000Y-72980000D03*
X83860000Y-72980000D03*
X84660000Y-72980000D03*
X85460000Y-72980000D03*
X86260000Y-72980000D03*
X87060000Y-72980000D03*
X87860000Y-72980000D03*
X88660000Y-72980000D03*
X89460000Y-72980000D03*
X90260000Y-72980000D03*
X91060000Y-72980000D03*
X91860000Y-72980000D03*
X92660000Y-72980000D03*
X93460000Y-72980000D03*
X94260000Y-72980000D03*
X95060000Y-72980000D03*
X95860000Y-72980000D03*
X82260000Y-73780000D03*
X83060000Y-73780000D03*
X83860000Y-73780000D03*
X84660000Y-73780000D03*
X85460000Y-73780000D03*
X86260000Y-73780000D03*
X87060000Y-73780000D03*
X87860000Y-73780000D03*
X88660000Y-73780000D03*
X89460000Y-73780000D03*
X90260000Y-73780000D03*
X91060000Y-73780000D03*
X91860000Y-73780000D03*
X92660000Y-73780000D03*
X93460000Y-73780000D03*
X94260000Y-73780000D03*
X95060000Y-73780000D03*
X95860000Y-73780000D03*
X82260000Y-74580000D03*
X83060000Y-74580000D03*
X83860000Y-74580000D03*
X84660000Y-74580000D03*
X85460000Y-74580000D03*
X86260000Y-74580000D03*
X87060000Y-74580000D03*
X87860000Y-74580000D03*
X88660000Y-74580000D03*
X89460000Y-74580000D03*
X90260000Y-74580000D03*
X91060000Y-74580000D03*
X91860000Y-74580000D03*
X92660000Y-74580000D03*
X93460000Y-74580000D03*
X94260000Y-74580000D03*
X95060000Y-74580000D03*
X95860000Y-74580000D03*
X82260000Y-75380000D03*
X83060000Y-75380000D03*
X83860000Y-75380000D03*
X84660000Y-75380000D03*
X85460000Y-75380000D03*
X86260000Y-75380000D03*
X87060000Y-75380000D03*
X87860000Y-75380000D03*
X88660000Y-75380000D03*
X89460000Y-75380000D03*
X90260000Y-75380000D03*
X91060000Y-75380000D03*
X91860000Y-75380000D03*
X92660000Y-75380000D03*
X93460000Y-75380000D03*
X94260000Y-75380000D03*
X95060000Y-75380000D03*
X95860000Y-75380000D03*
X82260000Y-76180000D03*
X83060000Y-76180000D03*
X83860000Y-76180000D03*
X84660000Y-76180000D03*
X85460000Y-76180000D03*
X86260000Y-76180000D03*
X87060000Y-76180000D03*
X87860000Y-76180000D03*
X88660000Y-76180000D03*
X89460000Y-76180000D03*
X90260000Y-76180000D03*
X91060000Y-76180000D03*
X91860000Y-76180000D03*
X92660000Y-76180000D03*
X93460000Y-76180000D03*
X94260000Y-76180000D03*
X95060000Y-76180000D03*
X95860000Y-76180000D03*
X82260000Y-76980000D03*
X83060000Y-76980000D03*
X83860000Y-76980000D03*
X84660000Y-76980000D03*
X85460000Y-76980000D03*
X86260000Y-76980000D03*
X87060000Y-76980000D03*
X87860000Y-76980000D03*
X88660000Y-76980000D03*
X89460000Y-76980000D03*
X90260000Y-76980000D03*
X91060000Y-76980000D03*
X91860000Y-76980000D03*
X92660000Y-76980000D03*
X93460000Y-76980000D03*
X94260000Y-76980000D03*
X95060000Y-76980000D03*
X95860000Y-76980000D03*
X82260000Y-77780000D03*
X83060000Y-77780000D03*
X83860000Y-77780000D03*
X84660000Y-77780000D03*
X85460000Y-77780000D03*
X86260000Y-77780000D03*
X87060000Y-77780000D03*
X87860000Y-77780000D03*
X88660000Y-77780000D03*
X89460000Y-77780000D03*
X90260000Y-77780000D03*
X91060000Y-77780000D03*
X91860000Y-77780000D03*
X92660000Y-77780000D03*
X93460000Y-77780000D03*
X94260000Y-77780000D03*
X95060000Y-77780000D03*
X95860000Y-77780000D03*
X82260000Y-78580000D03*
X83060000Y-78580000D03*
X83860000Y-78580000D03*
X84660000Y-78580000D03*
X85460000Y-78580000D03*
X86260000Y-78580000D03*
X87060000Y-78580000D03*
X87860000Y-78580000D03*
X88660000Y-78580000D03*
X89460000Y-78580000D03*
X90260000Y-78580000D03*
X91060000Y-78580000D03*
X91860000Y-78580000D03*
X92660000Y-78580000D03*
X93460000Y-78580000D03*
X94260000Y-78580000D03*
X95060000Y-78580000D03*
X95860000Y-78580000D03*
X82260000Y-79380000D03*
X83060000Y-79380000D03*
X83860000Y-79380000D03*
X84660000Y-79380000D03*
X85460000Y-79380000D03*
X86260000Y-79380000D03*
X87060000Y-79380000D03*
X87860000Y-79380000D03*
X88660000Y-79380000D03*
X89460000Y-79380000D03*
X90260000Y-79380000D03*
X91060000Y-79380000D03*
X91860000Y-79380000D03*
X92660000Y-79380000D03*
X93460000Y-79380000D03*
X94260000Y-79380000D03*
X95060000Y-79380000D03*
X95860000Y-79380000D03*
X82260000Y-80180000D03*
X83060000Y-80180000D03*
X83860000Y-80180000D03*
X84660000Y-80180000D03*
X85460000Y-80180000D03*
X86260000Y-80180000D03*
X87060000Y-80180000D03*
X87860000Y-80180000D03*
X88660000Y-80180000D03*
X89460000Y-80180000D03*
X90260000Y-80180000D03*
X91060000Y-80180000D03*
X91860000Y-80180000D03*
X92660000Y-80180000D03*
X93460000Y-80180000D03*
X94260000Y-80180000D03*
X95060000Y-80180000D03*
X95860000Y-80180000D03*
X82260000Y-80980000D03*
X83060000Y-80980000D03*
X83860000Y-80980000D03*
X84660000Y-80980000D03*
X85460000Y-80980000D03*
X86260000Y-80980000D03*
X87060000Y-80980000D03*
X87860000Y-80980000D03*
X88660000Y-80980000D03*
X89460000Y-80980000D03*
X90260000Y-80980000D03*
X91060000Y-80980000D03*
X91860000Y-80980000D03*
X92660000Y-80980000D03*
X93460000Y-80980000D03*
X94260000Y-80980000D03*
X95060000Y-80980000D03*
X95860000Y-80980000D03*
X82260000Y-81780000D03*
X83060000Y-81780000D03*
X83860000Y-81780000D03*
X84660000Y-81780000D03*
X85460000Y-81780000D03*
X86260000Y-81780000D03*
X87060000Y-81780000D03*
X87860000Y-81780000D03*
X88660000Y-81780000D03*
X89460000Y-81780000D03*
X90260000Y-81780000D03*
X91060000Y-81780000D03*
X91860000Y-81780000D03*
X92660000Y-81780000D03*
X93460000Y-81780000D03*
X94260000Y-81780000D03*
X95060000Y-81780000D03*
X95860000Y-81780000D03*
X82260000Y-82580000D03*
X83060000Y-82580000D03*
X83860000Y-82580000D03*
X84660000Y-82580000D03*
X85460000Y-82580000D03*
X86260000Y-82580000D03*
X87060000Y-82580000D03*
X87860000Y-82580000D03*
X88660000Y-82580000D03*
X89460000Y-82580000D03*
X90260000Y-82580000D03*
X91060000Y-82580000D03*
X91860000Y-82580000D03*
X92660000Y-82580000D03*
X93460000Y-82580000D03*
X94260000Y-82580000D03*
X95060000Y-82580000D03*
X95860000Y-82580000D03*
X82260000Y-83380000D03*
X83060000Y-83380000D03*
X83860000Y-83380000D03*
X84660000Y-83380000D03*
X85460000Y-83380000D03*
X86260000Y-83380000D03*
X87060000Y-83380000D03*
X87860000Y-83380000D03*
X88660000Y-83380000D03*
X89460000Y-83380000D03*
X90260000Y-83380000D03*
X91060000Y-83380000D03*
X91860000Y-83380000D03*
X92660000Y-83380000D03*
X93460000Y-83380000D03*
X94260000Y-83380000D03*
X95060000Y-83380000D03*
X95860000Y-83380000D03*
X82260000Y-84180000D03*
X83060000Y-84180000D03*
X83860000Y-84180000D03*
X84660000Y-84180000D03*
X85460000Y-84180000D03*
X86260000Y-84180000D03*
X87060000Y-84180000D03*
X87860000Y-84180000D03*
X88660000Y-84180000D03*
X89460000Y-84180000D03*
X90260000Y-84180000D03*
X91060000Y-84180000D03*
X91860000Y-84180000D03*
X92660000Y-84180000D03*
X93460000Y-84180000D03*
X94260000Y-84180000D03*
X95060000Y-84180000D03*
X95860000Y-84180000D03*
X82260000Y-84980000D03*
X83060000Y-84980000D03*
X83860000Y-84980000D03*
X84660000Y-84980000D03*
X85460000Y-84980000D03*
X86260000Y-84980000D03*
X87060000Y-84980000D03*
X87860000Y-84980000D03*
X88660000Y-84980000D03*
X89460000Y-84980000D03*
X90260000Y-84980000D03*
X91060000Y-84980000D03*
X91860000Y-84980000D03*
X92660000Y-84980000D03*
X93460000Y-84980000D03*
X94260000Y-84980000D03*
X95060000Y-84980000D03*
X95860000Y-84980000D03*
D16*
X81610000Y-95630000D03*
X81610000Y-94670000D03*
D13*
X112045000Y-75290000D03*
X111025000Y-75290000D03*
D15*
X112030000Y-86352500D03*
X112030000Y-87927500D03*
D16*
X87160000Y-91240000D03*
X87160000Y-90280000D03*
D18*
X108298748Y-82540000D03*
X104448748Y-82540000D03*
X108298748Y-81090000D03*
X104448748Y-81090000D03*
D12*
X105670000Y-85157500D03*
X105670000Y-84137500D03*
D14*
X90370000Y-95250000D03*
X90370000Y-96210000D03*
D19*
X95430000Y-95500000D03*
X95430000Y-96520000D03*
D20*
X66355000Y-68860000D03*
X66355000Y-66960000D03*
D19*
X103715000Y-77690000D03*
X103715000Y-78710000D03*
D21*
X88260000Y-87210000D03*
X89280000Y-87210000D03*
D13*
X73750000Y-87280000D03*
X72730000Y-87280000D03*
D19*
X110775000Y-69820000D03*
X110775000Y-70840000D03*
X95150000Y-87230000D03*
X95150000Y-88250000D03*
D16*
X80640000Y-95630000D03*
X80640000Y-94670000D03*
D19*
X78660000Y-87030000D03*
X78660000Y-88050000D03*
D12*
X107260000Y-85157500D03*
X107260000Y-84137500D03*
D16*
X77730000Y-95630000D03*
X77730000Y-94670000D03*
D21*
X88140000Y-93990000D03*
X89160000Y-93990000D03*
D20*
X73105000Y-68660000D03*
X73105000Y-66760000D03*
D12*
X104080000Y-85157500D03*
X104080000Y-84137500D03*
D15*
X100830000Y-86352500D03*
X100830000Y-87927500D03*
D17*
X70821722Y-76220000D03*
X70821722Y-77020000D03*
X70821722Y-77820000D03*
X70821722Y-81020000D03*
X70821722Y-81820000D03*
X70821722Y-82620000D03*
X70021722Y-76220000D03*
X70021722Y-77020000D03*
X70021722Y-77820000D03*
X70021722Y-81020000D03*
X70021722Y-81820000D03*
X70021722Y-82620000D03*
X69221722Y-76220000D03*
X69221722Y-77020000D03*
X69221722Y-77820000D03*
X69221722Y-81020000D03*
X69221722Y-81820000D03*
X69221722Y-82620000D03*
X68421722Y-76220000D03*
X68421722Y-77020000D03*
X68421722Y-77820000D03*
X68421722Y-81020000D03*
X68421722Y-81820000D03*
X68421722Y-82620000D03*
X67621722Y-76220000D03*
X67621722Y-77020000D03*
X67621722Y-77820000D03*
X67621722Y-81020000D03*
X67621722Y-81820000D03*
X67621722Y-82620000D03*
X66821722Y-76220000D03*
X66821722Y-77020000D03*
X66821722Y-77820000D03*
X66821722Y-81020000D03*
X66821722Y-81820000D03*
X66821722Y-82620000D03*
X66021722Y-76220000D03*
X66021722Y-77020000D03*
X66021722Y-77820000D03*
X66021722Y-81020000D03*
X66021722Y-81820000D03*
X66021722Y-82620000D03*
X65221722Y-76220000D03*
X65221722Y-77020000D03*
X65221722Y-77820000D03*
X65221722Y-81020000D03*
X65221722Y-81820000D03*
X65221722Y-82620000D03*
X64421722Y-76220000D03*
X64421722Y-77020000D03*
X64421722Y-77820000D03*
X64421722Y-81020000D03*
X64421722Y-81820000D03*
X64421722Y-82620000D03*
D15*
X102430000Y-86352500D03*
X102430000Y-87927500D03*
D16*
X74810000Y-95650000D03*
X74810000Y-94690000D03*
D14*
X93440000Y-95230000D03*
X93440000Y-96190000D03*
D22*
X93090624Y-87649376D03*
X92369376Y-88370624D03*
D15*
X105630000Y-86352500D03*
X105630000Y-87927500D03*
D23*
X87220000Y-96130000D03*
X88620000Y-96130000D03*
D24*
X72810000Y-95067500D03*
X72810000Y-94097500D03*
D19*
X71814887Y-94072128D03*
X71814887Y-95092128D03*
D12*
X100900000Y-85157500D03*
X100900000Y-84137500D03*
D15*
X110430000Y-86352500D03*
X110430000Y-87927500D03*
X108830000Y-86352500D03*
X108830000Y-87927500D03*
D21*
X90540000Y-93180000D03*
X91560000Y-93180000D03*
D12*
X110440000Y-85157500D03*
X110440000Y-84137500D03*
D14*
X91310000Y-95250000D03*
X91310000Y-96210000D03*
D16*
X82580000Y-94530000D03*
X82580000Y-93570000D03*
D13*
X86220000Y-89580000D03*
X85200000Y-89580000D03*
D25*
X100050000Y-90513750D03*
X101050000Y-90513750D03*
X101550000Y-90513750D03*
X102550000Y-90513750D03*
X103050000Y-90513750D03*
X102050000Y-90513750D03*
X100550000Y-90513750D03*
X99550000Y-90513750D03*
D26*
X98075000Y-90513750D03*
X104525000Y-90513750D03*
D27*
X96982000Y-95268750D03*
D28*
X96982000Y-91088750D03*
X105618000Y-91088750D03*
D27*
X105618000Y-95268750D03*
D26*
X98850000Y-90513750D03*
X103750000Y-90513750D03*
D19*
X83580000Y-94480000D03*
X83580000Y-95500000D03*
D13*
X112045000Y-76300000D03*
X111025000Y-76300000D03*
X101120000Y-74810000D03*
X100100000Y-74810000D03*
D19*
X82590000Y-95430000D03*
X82590000Y-96450000D03*
X105725000Y-77680000D03*
X105725000Y-78700000D03*
D13*
X101120000Y-76810000D03*
X100100000Y-76810000D03*
D14*
X85210000Y-90530000D03*
X85210000Y-91490000D03*
D13*
X101090000Y-72810000D03*
X100070000Y-72810000D03*
D19*
X70784887Y-94072128D03*
X70784887Y-95092128D03*
D24*
X68760000Y-95070000D03*
X68760000Y-94100000D03*
D13*
X101270000Y-69740000D03*
X100250000Y-69740000D03*
D19*
X110775000Y-67900000D03*
X110775000Y-68920000D03*
X106725000Y-77680000D03*
X106725000Y-78700000D03*
D29*
X112065000Y-78945000D03*
X112065000Y-82795000D03*
X110615000Y-78945000D03*
X110615000Y-82795000D03*
D16*
X88140000Y-91230000D03*
X88140000Y-90270000D03*
D19*
X109005000Y-77690000D03*
X109005000Y-78710000D03*
D14*
X86180000Y-90530000D03*
X86180000Y-91490000D03*
D13*
X101090000Y-71810000D03*
X100070000Y-71810000D03*
D12*
X95780000Y-92000000D03*
X95780000Y-90980000D03*
X94840000Y-92000000D03*
X94840000Y-90980000D03*
D19*
X67760000Y-94070000D03*
X67760000Y-95090000D03*
D21*
X68920000Y-90390000D03*
X69940000Y-90390000D03*
X68880000Y-89380000D03*
X69900000Y-89380000D03*
D19*
X107725000Y-77690000D03*
X107725000Y-78710000D03*
D23*
X84680000Y-96120000D03*
X86080000Y-96120000D03*
D19*
X84970000Y-93850000D03*
X84970000Y-94870000D03*
D12*
X108850000Y-85157500D03*
X108850000Y-84137500D03*
X102490000Y-85157500D03*
X102490000Y-84137500D03*
D30*
X108007500Y-70655000D03*
X106717500Y-70655000D03*
X105427500Y-70655000D03*
X104137500Y-70655000D03*
X108007500Y-71945000D03*
X106717500Y-71945000D03*
X105427500Y-71945000D03*
X104137500Y-71945000D03*
X108007500Y-73235000D03*
X106717500Y-73235000D03*
X105427500Y-73235000D03*
X104137500Y-73235000D03*
X108007500Y-74525000D03*
X106717500Y-74525000D03*
X105427500Y-74525000D03*
X104137500Y-74525000D03*
D31*
X108822500Y-69152500D03*
X108322500Y-69152500D03*
X107822500Y-69152500D03*
X107322500Y-69152500D03*
X106822500Y-69152500D03*
X106322500Y-69152500D03*
X105822500Y-69152500D03*
X105322500Y-69152500D03*
X104822500Y-69152500D03*
X104322500Y-69152500D03*
X103822500Y-69152500D03*
X103322500Y-69152500D03*
D32*
X102635000Y-69840000D03*
X102635000Y-70340000D03*
X102635000Y-70840000D03*
X102635000Y-71340000D03*
X102635000Y-71840000D03*
X102635000Y-72340000D03*
X102635000Y-72840000D03*
X102635000Y-73340000D03*
X102635000Y-73840000D03*
X102635000Y-74340000D03*
X102635000Y-74840000D03*
X102635000Y-75340000D03*
D31*
X103322500Y-76027500D03*
X103822500Y-76027500D03*
X104322500Y-76027500D03*
X104822500Y-76027500D03*
X105322500Y-76027500D03*
X105822500Y-76027500D03*
X106322500Y-76027500D03*
X106822500Y-76027500D03*
X107322500Y-76027500D03*
X107822500Y-76027500D03*
X108322500Y-76027500D03*
X108822500Y-76027500D03*
D32*
X109510000Y-75340000D03*
X109510000Y-74840000D03*
X109510000Y-74340000D03*
X109510000Y-73840000D03*
X109510000Y-73340000D03*
X109510000Y-72840000D03*
X109510000Y-72340000D03*
X109510000Y-71840000D03*
X109510000Y-71340000D03*
X109510000Y-70840000D03*
X109510000Y-70340000D03*
X109510000Y-69840000D03*
D33*
X91905000Y-89970000D03*
D34*
X90780000Y-89970000D03*
D33*
X89655000Y-89970000D03*
X89655000Y-91570000D03*
D34*
X90780000Y-91570000D03*
D33*
X91905000Y-91570000D03*
D29*
X101955000Y-78905000D03*
X101955000Y-82755000D03*
X100505000Y-78905000D03*
X100505000Y-82755000D03*
D12*
X94430000Y-96510000D03*
X94430000Y-95490000D03*
D35*
X66940000Y-88640000D03*
X66940000Y-87640000D03*
X61040000Y-87640000D03*
X61040000Y-88640000D03*
D36*
X66140000Y-89640000D03*
X66140000Y-86640000D03*
X61840000Y-89640000D03*
X61840000Y-86640000D03*
D19*
X69770000Y-94070000D03*
X69770000Y-95090000D03*
D16*
X78690000Y-95630000D03*
X78690000Y-94670000D03*
D13*
X69940000Y-91410000D03*
X68920000Y-91410000D03*
D16*
X75780000Y-95640000D03*
X75780000Y-94680000D03*
D13*
X101120000Y-75810000D03*
X100100000Y-75810000D03*
X101120000Y-73810000D03*
X100100000Y-73810000D03*
X77620000Y-86970000D03*
X76600000Y-86970000D03*
X69890000Y-88370000D03*
X68870000Y-88370000D03*
D12*
X112030000Y-85157500D03*
X112030000Y-84137500D03*
D19*
X94140000Y-88530000D03*
X94140000Y-89550000D03*
D21*
X75040000Y-93090000D03*
X76060000Y-93090000D03*
D19*
X104715000Y-77690000D03*
X104715000Y-78710000D03*
D13*
X75690000Y-87270000D03*
X74670000Y-87270000D03*
D15*
X104030000Y-86352500D03*
X104030000Y-87927500D03*
D37*
X70875001Y-66625000D03*
X70425002Y-66625000D03*
X69975000Y-66625000D03*
X69525001Y-66625000D03*
D38*
X69075002Y-66473000D03*
X68625000Y-66473000D03*
X68175001Y-66473000D03*
X68175001Y-69077000D03*
X68625000Y-69077000D03*
X69075002Y-69077000D03*
D37*
X69525001Y-68925000D03*
X69975000Y-68925000D03*
X70425002Y-68925000D03*
X70875001Y-68925000D03*
D39*
X71025001Y-68025000D03*
X71025001Y-67525000D03*
D40*
X69750002Y-67525000D03*
X69750002Y-68025000D03*
D16*
X79670000Y-95630000D03*
X79670000Y-94670000D03*
D13*
X112335000Y-73950000D03*
X111315000Y-73950000D03*
D14*
X92460000Y-94000000D03*
X92460000Y-94960000D03*
D41*
X62710000Y-57480000D02*
X110710000Y-57480000D01*
X98772500Y-87042500D02*
G75*
G02*
X97072500Y-87042500I-850000J0D01*
G01*
X97072500Y-87042500D02*
G75*
G02*
X98772500Y-87042500I850000J0D01*
G01*
X62710000Y-97480000D02*
X110710000Y-97480000D01*
X114210000Y-93980000D02*
G75*
G02*
X110710000Y-97480000I-3500000J0D01*
G01*
X110710000Y-57480000D02*
G75*
G02*
X114210000Y-60980000I0J-3500000D01*
G01*
X114210000Y-93980000D02*
X114210000Y-60980000D01*
X81047500Y-69317500D02*
G75*
G02*
X79347500Y-69317500I-850000J0D01*
G01*
X79347500Y-69317500D02*
G75*
G02*
X81047500Y-69317500I850000J0D01*
G01*
X59210000Y-60980000D02*
G75*
G02*
X62710000Y-57480000I3500000J0D01*
G01*
X80622500Y-81962500D02*
G75*
G02*
X79772500Y-81962500I-425000J0D01*
G01*
X79772500Y-81962500D02*
G75*
G02*
X80622500Y-81962500I425000J0D01*
G01*
X98347500Y-71857500D02*
G75*
G02*
X97497500Y-71857500I-425000J0D01*
G01*
X97497500Y-71857500D02*
G75*
G02*
X98347500Y-71857500I425000J0D01*
G01*
X62710000Y-97480000D02*
G75*
G02*
X59210000Y-93980000I0J3500000D01*
G01*
X81047500Y-87042500D02*
G75*
G02*
X79347500Y-87042500I-850000J0D01*
G01*
X79347500Y-87042500D02*
G75*
G02*
X81047500Y-87042500I850000J0D01*
G01*
X98772500Y-69317500D02*
G75*
G02*
X97072500Y-69317500I-850000J0D01*
G01*
X97072500Y-69317500D02*
G75*
G02*
X98772500Y-69317500I850000J0D01*
G01*
X59210000Y-60980000D02*
X59210000Y-93980000D01*
M02*
