G04 #@! TF.GenerationSoftware,KiCad,Pcbnew,9.0.1+dfsg-1*
G04 #@! TF.CreationDate,2025-07-10T12:54:23+02:00*
G04 #@! TF.ProjectId,ulx5m-gs,756c7835-6d2d-4677-932e-6b696361645f,rev?*
G04 #@! TF.SameCoordinates,Original*
G04 #@! TF.FileFunction,Paste,Bot*
G04 #@! TF.FilePolarity,Positive*
%FSLAX46Y46*%
G04 Gerber Fmt 4.6, Leading zero omitted, Abs format (unit mm)*
G04 Created by KiCad (PCBNEW 9.0.1+dfsg-1) date 2025-07-10 12:54:23*
%MOMM*%
%LPD*%
G01*
G04 APERTURE LIST*
G04 Aperture macros list*
%AMRoundRect*
0 Rectangle with rounded corners*
0 $1 Rounding radius*
0 $2 $3 $4 $5 $6 $7 $8 $9 X,Y pos of 4 corners*
0 Add a 4 corners polygon primitive as box body*
4,1,4,$2,$3,$4,$5,$6,$7,$8,$9,$2,$3,0*
0 Add four circle primitives for the rounded corners*
1,1,$1+$1,$2,$3*
1,1,$1+$1,$4,$5*
1,1,$1+$1,$6,$7*
1,1,$1+$1,$8,$9*
0 Add four rect primitives between the rounded corners*
20,1,$1+$1,$2,$3,$4,$5,0*
20,1,$1+$1,$4,$5,$6,$7,0*
20,1,$1+$1,$6,$7,$8,$9,0*
20,1,$1+$1,$8,$9,$2,$3,0*%
G04 Aperture macros list end*
%ADD10RoundRect,0.110000X0.110000X0.160000X-0.110000X0.160000X-0.110000X-0.160000X0.110000X-0.160000X0*%
%ADD11RoundRect,0.115000X-0.115000X-0.145000X0.115000X-0.145000X0.115000X0.145000X-0.115000X0.145000X0*%
%ADD12RoundRect,0.115000X0.115000X0.145000X-0.115000X0.145000X-0.115000X-0.145000X0.115000X-0.145000X0*%
%ADD13RoundRect,0.115000X-0.145000X0.115000X-0.145000X-0.115000X0.145000X-0.115000X0.145000X0.115000X0*%
%ADD14RoundRect,0.115000X0.145000X-0.115000X0.145000X0.115000X-0.145000X0.115000X-0.145000X-0.115000X0*%
%ADD15RoundRect,0.110000X0.160000X-0.110000X0.160000X0.110000X-0.160000X0.110000X-0.160000X-0.110000X0*%
%ADD16RoundRect,0.110000X-0.110000X-0.160000X0.110000X-0.160000X0.110000X0.160000X-0.110000X0.160000X0*%
%ADD17RoundRect,0.125000X0.175000X-0.125000X0.175000X0.125000X-0.175000X0.125000X-0.175000X-0.125000X0*%
%ADD18RoundRect,0.193750X-0.231250X0.193750X-0.231250X-0.193750X0.231250X-0.193750X0.231250X0.193750X0*%
%ADD19RoundRect,0.230000X-0.345000X-0.820000X0.345000X-0.820000X0.345000X0.820000X-0.345000X0.820000X0*%
%ADD20RoundRect,0.110000X-0.160000X0.110000X-0.160000X-0.110000X0.160000X-0.110000X0.160000X0.110000X0*%
%ADD21R,0.130000X0.560000*%
%ADD22R,0.250000X0.560000*%
%ADD23RoundRect,0.125000X-0.175000X0.125000X-0.175000X-0.125000X0.175000X-0.125000X0.175000X0.125000X0*%
%ADD24RoundRect,0.193750X0.231250X-0.193750X0.231250X0.193750X-0.231250X0.193750X-0.231250X-0.193750X0*%
%ADD25C,0.126000*%
%ADD26RoundRect,0.125000X-0.487500X-0.125000X0.487500X-0.125000X0.487500X0.125000X-0.487500X0.125000X0*%
%ADD27RoundRect,0.125000X0.487500X0.125000X-0.487500X0.125000X-0.487500X-0.125000X0.487500X-0.125000X0*%
%ADD28RoundRect,0.193750X-0.193750X-0.231250X0.193750X-0.231250X0.193750X0.231250X-0.193750X0.231250X0*%
%ADD29RoundRect,0.125000X-0.125000X0.562500X-0.125000X-0.562500X0.125000X-0.562500X0.125000X0.562500X0*%
%ADD30RoundRect,0.125000X0.125000X-0.650000X0.125000X0.650000X-0.125000X0.650000X-0.125000X-0.650000X0*%
%ADD31RoundRect,0.200000X-0.200000X-0.225000X0.200000X-0.225000X0.200000X0.225000X-0.200000X0.225000X0*%
%ADD32RoundRect,0.200000X0.225000X-0.200000X0.225000X0.200000X-0.225000X0.200000X-0.225000X-0.200000X0*%
%ADD33R,1.100000X1.300000*%
%ADD34RoundRect,0.230000X0.345000X0.820000X-0.345000X0.820000X-0.345000X-0.820000X0.345000X-0.820000X0*%
%ADD35RoundRect,0.075000X0.075000X-0.130000X0.075000X0.130000X-0.075000X0.130000X-0.075000X-0.130000X0*%
%ADD36RoundRect,0.175000X0.175000X0.225000X-0.175000X0.225000X-0.175000X-0.225000X0.175000X-0.225000X0*%
G04 #@! TA.AperFunction,Profile*
%ADD37C,0.100000*%
G04 #@! TD*
G04 APERTURE END LIST*
D10*
X100430000Y-62620000D03*
X99410000Y-62620000D03*
D11*
X84970000Y-75410000D03*
X85930000Y-75410000D03*
X88210000Y-77610000D03*
X89170000Y-77610000D03*
X91440000Y-77580000D03*
X92400000Y-77580000D03*
D12*
X96610000Y-84550000D03*
X95650000Y-84550000D03*
D13*
X96240000Y-77430000D03*
X96240000Y-78390000D03*
D14*
X110090000Y-83600000D03*
X110090000Y-82640000D03*
D15*
X110310000Y-78700000D03*
X110310000Y-77680000D03*
D16*
X111080000Y-83570000D03*
X112100000Y-83570000D03*
D14*
X73460000Y-83620000D03*
X73460000Y-82660000D03*
X99660000Y-74110000D03*
X99660000Y-73150000D03*
D17*
X94620000Y-87640000D03*
X94620000Y-89040000D03*
D13*
X94670000Y-84410000D03*
X94670000Y-85370000D03*
D16*
X85800000Y-86680000D03*
X86820000Y-86680000D03*
D18*
X109440000Y-65730000D03*
X109440000Y-67305000D03*
D11*
X88210000Y-79460000D03*
X89170000Y-79460000D03*
D13*
X89670000Y-68160000D03*
X89670000Y-69120000D03*
D15*
X95700000Y-95670000D03*
X95700000Y-94650000D03*
D11*
X67140000Y-81840000D03*
X68100000Y-81840000D03*
D15*
X73990000Y-91120000D03*
X73990000Y-90100000D03*
D14*
X95070000Y-64250000D03*
X95070000Y-63290000D03*
X77230000Y-81000000D03*
X77230000Y-80040000D03*
D13*
X64920000Y-68200000D03*
X64920000Y-69160000D03*
D12*
X92270000Y-74040000D03*
X91310000Y-74040000D03*
D13*
X107285000Y-68570000D03*
X107285000Y-69530000D03*
D15*
X103700000Y-93720000D03*
X103700000Y-92700000D03*
D16*
X100270000Y-80410000D03*
X101290000Y-80410000D03*
D12*
X109970000Y-71720000D03*
X109010000Y-71720000D03*
D19*
X105545000Y-82690000D03*
X107695000Y-82690000D03*
D11*
X102680000Y-94680000D03*
X103640000Y-94680000D03*
D20*
X79410000Y-84110000D03*
X79410000Y-85130000D03*
D16*
X100300000Y-82440000D03*
X101320000Y-82440000D03*
D12*
X97650000Y-82150000D03*
X96690000Y-82150000D03*
D13*
X106295000Y-68570000D03*
X106295000Y-69530000D03*
D14*
X77610000Y-69410000D03*
X77610000Y-68450000D03*
D13*
X80400000Y-84070000D03*
X80400000Y-85030000D03*
D11*
X91440000Y-80440000D03*
X92400000Y-80440000D03*
D15*
X80140000Y-67010000D03*
X80140000Y-65990000D03*
D14*
X97540000Y-74060000D03*
X97540000Y-73100000D03*
X96270000Y-80220000D03*
X96270000Y-79260000D03*
X88590000Y-67160000D03*
X88590000Y-66200000D03*
D11*
X91440000Y-79460000D03*
X92400000Y-79460000D03*
D14*
X65880000Y-67220000D03*
X65880000Y-66260000D03*
D20*
X72230000Y-82610000D03*
X72230000Y-83630000D03*
D14*
X106835000Y-76430000D03*
X106835000Y-75470000D03*
X74300000Y-81000000D03*
X74300000Y-80040000D03*
D13*
X92210000Y-84500000D03*
X92210000Y-85460000D03*
D16*
X104685000Y-93380000D03*
X105705000Y-93380000D03*
D12*
X102410000Y-59640000D03*
X101450000Y-59640000D03*
X109970000Y-72690000D03*
X109010000Y-72690000D03*
D15*
X65910000Y-69210000D03*
X65910000Y-68190000D03*
D13*
X101410000Y-62590000D03*
X101410000Y-63550000D03*
D21*
X94010000Y-93125000D03*
X94010000Y-95835000D03*
X93610000Y-93125000D03*
X93610000Y-95835000D03*
X93210000Y-93125000D03*
X93210000Y-95835000D03*
X92810000Y-93125000D03*
X92810000Y-95835000D03*
X92410000Y-93125000D03*
X92410000Y-95835000D03*
X92010000Y-93125000D03*
X92010000Y-95835000D03*
X91610000Y-93125000D03*
X91610000Y-95835000D03*
X91210000Y-93125000D03*
X91210000Y-95835000D03*
X90810000Y-93125000D03*
X90810000Y-95835000D03*
X90410000Y-93125000D03*
X90410000Y-95835000D03*
X90010000Y-93125000D03*
X90010000Y-95835000D03*
X89610000Y-93125000D03*
X89610000Y-95835000D03*
X89210000Y-93125000D03*
X89210000Y-95835000D03*
X88810000Y-93125000D03*
X88810000Y-95835000D03*
X88410000Y-93125000D03*
X88410000Y-95835000D03*
X88010000Y-93125000D03*
X88010000Y-95835000D03*
X87610000Y-93125000D03*
X87610000Y-95835000D03*
X87210000Y-93125000D03*
X87210000Y-95835000D03*
X86810000Y-93125000D03*
X86810000Y-95835000D03*
X86410000Y-93125000D03*
X86410000Y-95835000D03*
X86010000Y-93125000D03*
X86010000Y-95835000D03*
X85610000Y-93125000D03*
X85610000Y-95835000D03*
X85210000Y-93125000D03*
X85210000Y-95835000D03*
X84810000Y-93125000D03*
X84810000Y-95835000D03*
X84410000Y-93125000D03*
X84410000Y-95835000D03*
X84010000Y-93125000D03*
X84010000Y-95835000D03*
X83610000Y-93125000D03*
X83610000Y-95835000D03*
X83210000Y-93125000D03*
X83210000Y-95835000D03*
X82810000Y-93125000D03*
X82810000Y-95835000D03*
X82410000Y-93125000D03*
X82410000Y-95835000D03*
X82010000Y-93125000D03*
X82010000Y-95835000D03*
X81610000Y-93125000D03*
X81610000Y-95835000D03*
X81210000Y-93125000D03*
X81210000Y-95835000D03*
X80810000Y-93125000D03*
X80810000Y-95835000D03*
X80410000Y-93125000D03*
X80410000Y-95835000D03*
X80010000Y-93125000D03*
X80010000Y-95835000D03*
X79610000Y-93125000D03*
X79610000Y-95835000D03*
X79210000Y-93125000D03*
X79210000Y-95835000D03*
X78810000Y-93125000D03*
X78810000Y-95835000D03*
X78410000Y-93125000D03*
X78410000Y-95835000D03*
X78010000Y-93125000D03*
X78010000Y-95835000D03*
X77610000Y-93125000D03*
X77610000Y-95835000D03*
X77210000Y-93125000D03*
X77210000Y-95835000D03*
X76810000Y-93125000D03*
X76810000Y-95835000D03*
X76410000Y-93125000D03*
X76410000Y-95835000D03*
X76010000Y-93125000D03*
X76010000Y-95835000D03*
X75610000Y-93125000D03*
X75610000Y-95835000D03*
X75210000Y-93125000D03*
X75210000Y-95835000D03*
X74810000Y-93125000D03*
X74810000Y-95835000D03*
X74410000Y-93125000D03*
X74410000Y-95835000D03*
D22*
X94485000Y-93125000D03*
X94485000Y-95835000D03*
X73935000Y-93125000D03*
X73935000Y-95835000D03*
D11*
X88210000Y-78540000D03*
X89170000Y-78540000D03*
D14*
X102380000Y-61610000D03*
X102380000Y-60650000D03*
D13*
X70560000Y-82650000D03*
X70560000Y-83610000D03*
X109275000Y-68580000D03*
X109275000Y-69540000D03*
D10*
X62440000Y-82540000D03*
X61420000Y-82540000D03*
D20*
X66920000Y-68190000D03*
X66920000Y-69210000D03*
D23*
X103650000Y-87417500D03*
X103650000Y-86017500D03*
D20*
X111130000Y-84570000D03*
X111130000Y-85590000D03*
D14*
X67200000Y-87150000D03*
X67200000Y-86190000D03*
X100630000Y-72280000D03*
X100630000Y-71320000D03*
D13*
X77820000Y-64000000D03*
X77820000Y-64960000D03*
D24*
X93420000Y-86347500D03*
X93420000Y-84772500D03*
D14*
X88210000Y-82230000D03*
X88210000Y-81270000D03*
D16*
X85610000Y-83130000D03*
X86630000Y-83130000D03*
D10*
X103692500Y-95690000D03*
X102672500Y-95690000D03*
X62440000Y-81530000D03*
X61420000Y-81530000D03*
D13*
X96270000Y-61150000D03*
X96270000Y-62110000D03*
D14*
X83600000Y-84770000D03*
X83600000Y-83810000D03*
X76230000Y-80990000D03*
X76230000Y-80030000D03*
D24*
X111365000Y-73837500D03*
X111365000Y-72262500D03*
D14*
X89150000Y-82240000D03*
X89150000Y-81280000D03*
D19*
X100002500Y-90770000D03*
X102152500Y-90770000D03*
D12*
X86760000Y-80340000D03*
X85800000Y-80340000D03*
D20*
X92380000Y-87650000D03*
X92380000Y-88670000D03*
D15*
X91110000Y-91530000D03*
X91110000Y-90510000D03*
D19*
X61340000Y-66320000D03*
X63490000Y-66320000D03*
D10*
X82340000Y-86000000D03*
X81320000Y-86000000D03*
D11*
X88180000Y-76690000D03*
X89140000Y-76690000D03*
D24*
X96180000Y-88617500D03*
X96180000Y-87042500D03*
D14*
X108795000Y-76430000D03*
X108795000Y-75470000D03*
D25*
X92660000Y-91350000D03*
X93160000Y-91350000D03*
X92660000Y-90850000D03*
X93160000Y-90850000D03*
X92660000Y-90350000D03*
X93160000Y-90350000D03*
X92660000Y-89850000D03*
X93160000Y-89850000D03*
D12*
X112608750Y-67390000D03*
X111648750Y-67390000D03*
D26*
X98972500Y-94920000D03*
X98972500Y-93970000D03*
X98972500Y-93020000D03*
X101247500Y-93020000D03*
X101247500Y-94920000D03*
D23*
X102200000Y-87407500D03*
X102200000Y-86007500D03*
D10*
X62440000Y-83550000D03*
X61420000Y-83550000D03*
D14*
X94080000Y-64250000D03*
X94080000Y-63290000D03*
D12*
X101270000Y-81390000D03*
X100310000Y-81390000D03*
D20*
X106110000Y-77680000D03*
X106110000Y-78700000D03*
X87590000Y-83140000D03*
X87590000Y-84160000D03*
D27*
X106107500Y-59400000D03*
X106107500Y-60350000D03*
X106107500Y-61300000D03*
X103832500Y-61300000D03*
X103832500Y-59400000D03*
D13*
X91250000Y-84500000D03*
X91250000Y-85460000D03*
D15*
X109320000Y-78710000D03*
X109320000Y-77690000D03*
D14*
X109110000Y-83600000D03*
X109110000Y-82640000D03*
D12*
X86760000Y-77570000D03*
X85800000Y-77570000D03*
D15*
X93390000Y-88660000D03*
X93390000Y-87640000D03*
D11*
X91430000Y-76660000D03*
X92390000Y-76660000D03*
D12*
X86770000Y-76650000D03*
X85810000Y-76650000D03*
D14*
X96290000Y-64000000D03*
X96290000Y-63040000D03*
D11*
X102235000Y-73360000D03*
X103195000Y-73360000D03*
D26*
X105400000Y-86790000D03*
X105400000Y-85840000D03*
X105400000Y-84890000D03*
X107675000Y-84890000D03*
X107675000Y-86790000D03*
D15*
X70070000Y-93110000D03*
X70070000Y-92090000D03*
D20*
X69560000Y-82610000D03*
X69560000Y-83630000D03*
D12*
X99832500Y-96180000D03*
X98872500Y-96180000D03*
D10*
X95070000Y-83060000D03*
X94050000Y-83060000D03*
D28*
X106272500Y-67060000D03*
X107847500Y-67060000D03*
D13*
X102702500Y-92750000D03*
X102702500Y-93710000D03*
D11*
X102235000Y-72360000D03*
X103195000Y-72360000D03*
D10*
X99350000Y-84530000D03*
X98330000Y-84530000D03*
D11*
X91440000Y-78500000D03*
X92400000Y-78500000D03*
D12*
X82750000Y-72120000D03*
X81790000Y-72120000D03*
D14*
X64900000Y-67220000D03*
X64900000Y-66260000D03*
D29*
X102810000Y-65902500D03*
X104710000Y-65902500D03*
X103760000Y-67777500D03*
D14*
X72160000Y-77410000D03*
X72160000Y-76450000D03*
D20*
X101390000Y-60600000D03*
X101390000Y-61620000D03*
D29*
X99050000Y-65962500D03*
X100950000Y-65962500D03*
X100000000Y-67837500D03*
D15*
X98670000Y-74120000D03*
X98670000Y-73100000D03*
D20*
X107110000Y-77680000D03*
X107110000Y-78700000D03*
D30*
X72620000Y-90460000D03*
X71350000Y-90460000D03*
X70080000Y-90460000D03*
X68810000Y-90460000D03*
X68810000Y-85210000D03*
X70080000Y-85210000D03*
X71350000Y-85210000D03*
X72620000Y-85210000D03*
D11*
X102315000Y-69290000D03*
X103275000Y-69290000D03*
D12*
X86760000Y-78490000D03*
X85800000Y-78490000D03*
X96280000Y-71430000D03*
X95320000Y-71430000D03*
D13*
X64830000Y-83500000D03*
X64830000Y-84460000D03*
D15*
X75230000Y-81020000D03*
X75230000Y-80000000D03*
D12*
X68850000Y-77960000D03*
X67890000Y-77960000D03*
D31*
X61710000Y-84820000D03*
X63260000Y-84820000D03*
D12*
X63560000Y-86130000D03*
X62600000Y-86130000D03*
D11*
X102315000Y-70290000D03*
X103275000Y-70290000D03*
D14*
X74140000Y-67120000D03*
X74140000Y-66160000D03*
D20*
X99560000Y-77420000D03*
X99560000Y-78440000D03*
D15*
X87410000Y-90540000D03*
X87410000Y-89520000D03*
D16*
X86060000Y-88480000D03*
X87080000Y-88480000D03*
D14*
X63360000Y-82550000D03*
X63360000Y-81590000D03*
D11*
X92230000Y-75010000D03*
X93190000Y-75010000D03*
D10*
X97890000Y-83130000D03*
X96870000Y-83130000D03*
D15*
X78130000Y-67020000D03*
X78130000Y-66000000D03*
D13*
X99870000Y-86650000D03*
X99870000Y-87610000D03*
D11*
X102305000Y-74820000D03*
X103265000Y-74820000D03*
D20*
X105110000Y-77690000D03*
X105110000Y-78710000D03*
D32*
X97550000Y-63725000D03*
X97550000Y-62175000D03*
D14*
X64830000Y-82540000D03*
X64830000Y-81580000D03*
D15*
X100380000Y-61620000D03*
X100380000Y-60600000D03*
D33*
X102650000Y-76330000D03*
X102650000Y-78530000D03*
X100950000Y-78530000D03*
X100950000Y-76330000D03*
D10*
X99240000Y-85520000D03*
X98220000Y-85520000D03*
D15*
X110120000Y-85590000D03*
X110120000Y-84570000D03*
D21*
X94010000Y-59125000D03*
X94010000Y-61835000D03*
X93610000Y-59125000D03*
X93610000Y-61835000D03*
X93210000Y-59125000D03*
X93210000Y-61835000D03*
X92810000Y-59125000D03*
X92810000Y-61835000D03*
X92410000Y-59125000D03*
X92410000Y-61835000D03*
X92010000Y-59125000D03*
X92010000Y-61835000D03*
X91610000Y-59125000D03*
X91610000Y-61835000D03*
X91210000Y-59125000D03*
X91210000Y-61835000D03*
X90810000Y-59125000D03*
X90810000Y-61835000D03*
X90410000Y-59125000D03*
X90410000Y-61835000D03*
X90010000Y-59125000D03*
X90010000Y-61835000D03*
X89610000Y-59125000D03*
X89610000Y-61835000D03*
X89210000Y-59125000D03*
X89210000Y-61835000D03*
X88810000Y-59125000D03*
X88810000Y-61835000D03*
X88410000Y-59125000D03*
X88410000Y-61835000D03*
X88010000Y-59125000D03*
X88010000Y-61835000D03*
X87610000Y-59125000D03*
X87610000Y-61835000D03*
X87210000Y-59125000D03*
X87210000Y-61835000D03*
X86810000Y-59125000D03*
X86810000Y-61835000D03*
X86410000Y-59125000D03*
X86410000Y-61835000D03*
X86010000Y-59125000D03*
X86010000Y-61835000D03*
X85610000Y-59125000D03*
X85610000Y-61835000D03*
X85210000Y-59125000D03*
X85210000Y-61835000D03*
X84810000Y-59125000D03*
X84810000Y-61835000D03*
X84410000Y-59125000D03*
X84410000Y-61835000D03*
X84010000Y-59125000D03*
X84010000Y-61835000D03*
X83610000Y-59125000D03*
X83610000Y-61835000D03*
X83210000Y-59125000D03*
X83210000Y-61835000D03*
X82810000Y-59125000D03*
X82810000Y-61835000D03*
X82410000Y-59125000D03*
X82410000Y-61835000D03*
X82010000Y-59125000D03*
X82010000Y-61835000D03*
X81610000Y-59125000D03*
X81610000Y-61835000D03*
X81210000Y-59125000D03*
X81210000Y-61835000D03*
X80810000Y-59125000D03*
X80810000Y-61835000D03*
X80410000Y-59125000D03*
X80410000Y-61835000D03*
X80010000Y-59125000D03*
X80010000Y-61835000D03*
X79610000Y-59125000D03*
X79610000Y-61835000D03*
X79210000Y-59125000D03*
X79210000Y-61835000D03*
X78810000Y-59125000D03*
X78810000Y-61835000D03*
X78410000Y-59125000D03*
X78410000Y-61835000D03*
X78010000Y-59125000D03*
X78010000Y-61835000D03*
X77610000Y-59125000D03*
X77610000Y-61835000D03*
X77210000Y-59125000D03*
X77210000Y-61835000D03*
X76810000Y-59125000D03*
X76810000Y-61835000D03*
X76410000Y-59125000D03*
X76410000Y-61835000D03*
X76010000Y-59125000D03*
X76010000Y-61835000D03*
X75610000Y-59125000D03*
X75610000Y-61835000D03*
X75210000Y-59125000D03*
X75210000Y-61835000D03*
X74810000Y-59125000D03*
X74810000Y-61835000D03*
X74410000Y-59125000D03*
X74410000Y-61835000D03*
D22*
X94485000Y-59125000D03*
X94485000Y-61835000D03*
X73935000Y-59125000D03*
X73935000Y-61835000D03*
D34*
X105955000Y-63490000D03*
X103805000Y-63490000D03*
D13*
X109130000Y-84580000D03*
X109130000Y-85540000D03*
D14*
X99650000Y-72280000D03*
X99650000Y-71320000D03*
X87250000Y-82200000D03*
X87250000Y-81240000D03*
D20*
X76110000Y-66010000D03*
X76110000Y-67030000D03*
D13*
X97220000Y-77430000D03*
X97220000Y-78390000D03*
D35*
X98280000Y-79845000D03*
X99280000Y-79845000D03*
X98780000Y-81135000D03*
D15*
X79130000Y-67010000D03*
X79130000Y-65990000D03*
D16*
X66870000Y-67190000D03*
X67890000Y-67190000D03*
D11*
X88210000Y-80380000D03*
X89170000Y-80380000D03*
D23*
X91140000Y-89420000D03*
X91140000Y-88020000D03*
D20*
X71500000Y-73580000D03*
X71500000Y-74600000D03*
D11*
X109100000Y-86550000D03*
X110060000Y-86550000D03*
D13*
X102400000Y-62590000D03*
X102400000Y-63550000D03*
X98200000Y-77430000D03*
X98200000Y-78390000D03*
D15*
X73510000Y-74600000D03*
X73510000Y-73580000D03*
D12*
X86760000Y-79420000D03*
X85800000Y-79420000D03*
D36*
X112383750Y-68635000D03*
X112383750Y-70485000D03*
X110933750Y-70485000D03*
X110933750Y-68635000D03*
D14*
X76510000Y-69410000D03*
X76510000Y-68450000D03*
D12*
X109980000Y-73660000D03*
X109020000Y-73660000D03*
D14*
X71050000Y-77450000D03*
X71050000Y-76490000D03*
D13*
X108285000Y-68580000D03*
X108285000Y-69540000D03*
D15*
X108110000Y-78700000D03*
X108110000Y-77680000D03*
D20*
X71790000Y-92050000D03*
X71790000Y-93070000D03*
X104110000Y-77690000D03*
X104110000Y-78710000D03*
D14*
X73180000Y-80990000D03*
X73180000Y-80030000D03*
D13*
X82360000Y-84070000D03*
X82360000Y-85030000D03*
D15*
X95730000Y-93730000D03*
X95730000Y-92710000D03*
D26*
X61190000Y-70410000D03*
X61190000Y-69460000D03*
X61190000Y-68510000D03*
X63465000Y-68510000D03*
X63465000Y-70410000D03*
D12*
X82510000Y-75320000D03*
X81550000Y-75320000D03*
X92390000Y-81430000D03*
X91430000Y-81430000D03*
X74140000Y-76470000D03*
X73180000Y-76470000D03*
D14*
X107815000Y-76430000D03*
X107815000Y-75470000D03*
D10*
X104670000Y-89070000D03*
X103650000Y-89070000D03*
D13*
X84860000Y-80540000D03*
X84860000Y-81500000D03*
D12*
X74150000Y-77450000D03*
X73190000Y-77450000D03*
X74100000Y-78410000D03*
X73140000Y-78410000D03*
D11*
X64890000Y-70170000D03*
X65850000Y-70170000D03*
D20*
X97260000Y-79730000D03*
X97260000Y-80750000D03*
D15*
X72500000Y-74610000D03*
X72500000Y-73590000D03*
X77110000Y-67030000D03*
X77110000Y-66010000D03*
D12*
X101732500Y-96190000D03*
X100772500Y-96190000D03*
D13*
X81380000Y-84060000D03*
X81380000Y-85020000D03*
D37*
X62710000Y-57480000D02*
X110710000Y-57480000D01*
X98772500Y-87042500D02*
G75*
G02*
X97072500Y-87042500I-850000J0D01*
G01*
X97072500Y-87042500D02*
G75*
G02*
X98772500Y-87042500I850000J0D01*
G01*
X62710000Y-97480000D02*
X110710000Y-97480000D01*
X114210000Y-93980000D02*
G75*
G02*
X110710000Y-97480000I-3500000J0D01*
G01*
X110710000Y-57480000D02*
G75*
G02*
X114210000Y-60980000I0J-3500000D01*
G01*
X114210000Y-93980000D02*
X114210000Y-60980000D01*
X81047500Y-69317500D02*
G75*
G02*
X79347500Y-69317500I-850000J0D01*
G01*
X79347500Y-69317500D02*
G75*
G02*
X81047500Y-69317500I850000J0D01*
G01*
X59210000Y-60980000D02*
G75*
G02*
X62710000Y-57480000I3500000J0D01*
G01*
X80622500Y-81962500D02*
G75*
G02*
X79772500Y-81962500I-425000J0D01*
G01*
X79772500Y-81962500D02*
G75*
G02*
X80622500Y-81962500I425000J0D01*
G01*
X98347500Y-71857500D02*
G75*
G02*
X97497500Y-71857500I-425000J0D01*
G01*
X97497500Y-71857500D02*
G75*
G02*
X98347500Y-71857500I425000J0D01*
G01*
X62710000Y-97480000D02*
G75*
G02*
X59210000Y-93980000I0J3500000D01*
G01*
X81047500Y-87042500D02*
G75*
G02*
X79347500Y-87042500I-850000J0D01*
G01*
X79347500Y-87042500D02*
G75*
G02*
X81047500Y-87042500I850000J0D01*
G01*
X98772500Y-69317500D02*
G75*
G02*
X97072500Y-69317500I-850000J0D01*
G01*
X97072500Y-69317500D02*
G75*
G02*
X98772500Y-69317500I850000J0D01*
G01*
X59210000Y-60980000D02*
X59210000Y-93980000D01*
M02*
