M48
; DRILL file {KiCad 9.0.2+dfsg-1} date 2025-11-26T16:26:58+0100
; FORMAT={-:-/ absolute / metric / decimal}
; #@! TF.CreationDate,2025-11-26T16:26:58+01:00
; #@! TF.GenerationSoftware,Kicad,Pcbnew,9.0.2+dfsg-1
; #@! TF.FileFunction,Plated,1,6,PTH
FMAT,2
METRIC
; #@! TA.AperFunction,Plated,PTH,ViaDrill
T1C0.200
; #@! TA.AperFunction,Plated,PTH,ViaDrill
T2C0.250
; #@! TA.AperFunction,Plated,PTH,ViaDrill
T3C0.300
; #@! TA.AperFunction,Plated,PTH,ComponentDrill
T4C0.600
; #@! TA.AperFunction,Plated,PTH,ComponentDrill
T5C2.700
%
G90
G05
T1
X59.93Y-87.65
X60.11Y-90.66
X60.3Y-88.63
X60.42Y-79.66
X60.6Y-75.51
X62.53Y-77.21
X62.8Y-76.19
X62.92Y-79.04
X63.08Y-81.02
X63.97Y-82.58
X63.98Y-73.735
X64.41Y-75.79
X64.65Y-78.88
X64.81Y-80.69
X64.99Y-91.41
X65.28Y-66.385
X65.3Y-83.51
X65.38Y-79.31
X65.38Y-92.32
X65.43Y-84.46
X65.58Y-82.98
X65.805Y-65.81
X65.88Y-66.26
X65.88Y-94.15
X66.14Y-95.29
X66.28Y-63.985
X66.505Y-66.11
X66.66Y-85.99
X66.7Y-96.63
X66.84Y-92.32
X67.205Y-77.41
X67.23Y-76.585
X67.27Y-81.39
X67.57Y-88.63
X67.63Y-88.19
X67.76Y-94.91
X68.02Y-77.48
X68.04Y-81.39
X68.06Y-86.58
X68.14Y-96.19
X68.36Y-90.38
X68.37Y-92.3
X68.55Y-95.44
X68.82Y-77.48
X68.83Y-68.51
X68.87Y-81.42
X68.93Y-59.61
X69.205Y-62.01
X69.205Y-63.01
X69.31Y-96.8
X69.35Y-93.11
X69.53Y-88.535
X69.63Y-77.47
X69.65Y-81.38
X70.13Y-58.71
X70.42Y-76.7
X70.44Y-93.71
X70.48Y-81.36
X70.52Y-84.1
X70.67Y-91.77
X70.68Y-86.36
X71.0Y-88.89
X71.11Y-75.87
X71.15Y-95.12
X71.21Y-82.63
X71.31Y-93.68
X71.36Y-93.05
X71.48Y-89.34
X71.49Y-77.3
X71.62Y-77.89
X71.62Y-91.37
X71.655Y-90.285
X71.69Y-75.46
X71.792Y-62.672
X71.827Y-65.035
X71.89Y-82.66
X71.98Y-58.76
X72.055Y-63.785
X72.18Y-87.585
X72.19Y-76.16
X72.19Y-95.1
X72.24Y-92.25
X72.62Y-77.15
X72.66Y-87.76
X72.88Y-86.31
X72.93Y-65.86
X73.14Y-82.65
X73.19Y-95.08
X73.22Y-75.88
X73.22Y-93.3
X73.53Y-63.76
X73.7Y-81.01
X73.77Y-79.67
X73.78Y-66.16
X74.03Y-64.935
X74.06Y-79.35
X74.14Y-67.12
X74.255Y-66.16
X74.37Y-59.78
X74.39Y-88.58
X74.39Y-90.04
X74.43Y-79.03
X74.44Y-91.24
X74.8Y-93.73
X74.83Y-59.81
X74.83Y-86.86
X74.83Y-96.36
X75.01Y-69.81
X75.04Y-94.21
X75.06Y-88.56
X75.31Y-86.36
X75.34Y-92.46
X75.47Y-70.23
X75.47Y-96.68
X75.52Y-94.33
X75.85Y-86.14
X75.88Y-92.49
X75.97Y-70.21
X76.01Y-61.25
X76.19Y-96.83
X76.3Y-85.59
X76.37Y-64.62
X76.45Y-93.96
X76.57Y-70.2
X76.61Y-87.43
X76.624Y-78.364
X76.631Y-78.926
X76.66Y-96.8
X76.703Y-71.42
X76.95Y-93.85
X77.06Y-96.56
X77.13Y-94.3
X77.43Y-86.16
X77.43Y-90.33
X77.52Y-96.59
X77.54Y-87.4
X77.55Y-76.9
X77.83Y-73.081
X77.86Y-94.18
X77.96Y-96.38
X78.01Y-63.39
X78.015Y-90.255
X78.031Y-78.724
X78.06Y-88.48
X78.18Y-87.6
X78.39Y-93.56
X78.43Y-96.33
X78.53Y-86.62
X78.56Y-63.44
X78.597Y-73.557
X78.607Y-79.62
X78.68Y-96.74
X78.682Y-80.992
X78.8Y-70.2
X78.86Y-68.02
X78.88Y-69.55
X78.9Y-82.5
X79.08Y-79.012
X79.16Y-94.22
X79.18Y-65.52
X79.2Y-60.78
X79.21Y-96.69
X79.43Y-93.85
X79.47Y-73.82
X79.61Y-96.34
X79.63Y-67.69
X79.7Y-62.6
X79.81Y-75.335
X79.85Y-85.689
X79.94Y-77.3
X80.0Y-96.66
X80.01Y-94.31
X80.07Y-65.56
X80.07Y-74.158
X80.45Y-96.76
X80.485Y-75.205
X80.525Y-80.18
X80.8Y-77.648
X80.81Y-92.62
X80.91Y-91.25
X80.93Y-58.31
X81.04Y-94.02
X81.06Y-74.98
X81.14Y-81.63
X81.16Y-72.492
X81.185Y-80.18
X81.25Y-90.94
X81.275Y-96.665
X81.31Y-81.194
X81.46Y-73.38
X81.8Y-71.41
X81.86Y-74.98
X81.86Y-77.38
X81.86Y-80.18
X81.86Y-83.38
X81.86Y-84.98
X81.89Y-72.581
X81.9Y-94.42
X81.99Y-93.59
X82.01Y-96.35
X82.26Y-85.38
X82.61Y-96.69
X82.66Y-72.58
X82.66Y-74.98
X82.71Y-77.42
X82.83Y-93.87
X82.99Y-71.03
X83.21Y-93.6
X83.21Y-96.34
X83.255Y-58.31
X83.46Y-73.38
X83.46Y-74.18
X83.46Y-74.98
X83.46Y-75.78
X83.46Y-76.58
X83.46Y-77.38
X83.46Y-78.98
X83.46Y-79.78
X83.46Y-80.58
X83.46Y-81.38
X83.46Y-82.18
X83.52Y-69.57
X83.66Y-93.85
X83.98Y-61.25
X84.05Y-96.57
X84.25Y-82.17
X84.26Y-72.58
X84.26Y-73.38
X84.26Y-74.18
X84.26Y-74.98
X84.26Y-75.78
X84.26Y-76.58
X84.26Y-77.38
X84.26Y-78.18
X84.26Y-78.98
X84.26Y-79.78
X84.26Y-80.59
X84.26Y-81.38
X84.26Y-82.98
X84.26Y-83.78
X84.53Y-96.6
X84.915Y-83.635
X84.99Y-87.24
X85.05Y-78.98
X85.06Y-72.58
X85.06Y-73.38
X85.06Y-74.18
X85.06Y-74.98
X85.06Y-75.78
X85.06Y-76.58
X85.06Y-77.38
X85.06Y-78.18
X85.06Y-79.78
X85.06Y-80.58
X85.06Y-81.38
X85.06Y-82.98
X85.23Y-96.55
X85.41Y-94.105
X85.41Y-94.695
X85.45Y-70.92
X85.48Y-87.27
X85.733Y-87.713
X85.8Y-85.53
X85.86Y-73.38
X85.86Y-74.18
X85.86Y-74.98
X85.86Y-75.78
X85.86Y-76.58
X85.86Y-77.38
X85.86Y-78.18
X85.86Y-78.98
X85.86Y-79.78
X85.86Y-80.58
X85.86Y-82.16
X85.86Y-82.98
X86.27Y-85.32
X86.3Y-87.73
X86.41Y-61.1
X86.63Y-83.82
X86.66Y-72.58
X86.66Y-73.38
X86.66Y-74.18
X86.66Y-74.98
X86.66Y-76.58
X86.66Y-77.38
X86.66Y-78.18
X86.66Y-78.98
X86.66Y-79.78
X86.66Y-80.58
X86.66Y-81.38
X86.66Y-82.98
X86.67Y-82.19
X86.785Y-93.635
X86.8Y-89.49
X86.81Y-95.41
X86.86Y-89.94
X87.12Y-87.35
X87.255Y-58.335
X87.38Y-96.45
X87.46Y-73.38
X87.46Y-71.78
X87.46Y-72.58
X87.46Y-74.98
X87.46Y-76.58
X87.46Y-77.38
X87.46Y-78.18
X87.46Y-78.98
X87.46Y-79.78
X87.46Y-80.58
X87.46Y-81.38
X87.46Y-82.98
X87.46Y-83.78
X87.465Y-82.175
X87.48Y-70.5
X87.59Y-87.42
X87.65Y-89.83
X87.67Y-86.7
X87.92Y-92.56
X87.97Y-62.65
X88.0Y-95.38
X88.05Y-86.39
X88.08Y-65.99
X88.2Y-67.16
X88.26Y-72.58
X88.26Y-73.38
X88.26Y-74.18
X88.26Y-74.98
X88.26Y-76.58
X88.26Y-77.38
X88.26Y-78.18
X88.26Y-78.98
X88.26Y-79.78
X88.26Y-80.58
X88.26Y-81.38
X88.26Y-82.98
X88.26Y-83.78
X88.26Y-84.58
X88.28Y-82.19
X88.36Y-93.81
X88.57Y-86.23
X88.71Y-96.45
X88.73Y-58.31
X88.782Y-85.662
X88.86Y-90.41
X88.86Y-93.81
X89.06Y-72.58
X89.06Y-73.38
X89.06Y-74.18
X89.06Y-74.98
X89.06Y-75.78
X89.06Y-76.58
X89.06Y-77.38
X89.06Y-78.18
X89.06Y-78.98
X89.06Y-79.78
X89.06Y-80.58
X89.06Y-81.38
X89.06Y-82.19
X89.06Y-82.98
X89.06Y-83.78
X89.17Y-95.16
X89.18Y-92.6
X89.21Y-96.33
X89.49Y-69.51
X89.53Y-86.18
X89.67Y-67.8
X89.7Y-96.45
X89.78Y-95.16
X89.86Y-70.18
X89.86Y-71.78
X89.86Y-72.58
X89.86Y-73.38
X89.86Y-74.98
X89.86Y-75.78
X89.86Y-76.58
X89.86Y-77.38
X89.86Y-78.18
X89.86Y-78.98
X89.86Y-79.78
X89.86Y-80.58
X89.86Y-82.18
X89.86Y-82.98
X89.86Y-83.78
X89.86Y-85.83
X89.875Y-81.365
X89.89Y-60.85
X90.45Y-93.82
X90.63Y-83.78
X90.64Y-81.4
X90.66Y-72.58
X90.66Y-73.38
X90.66Y-74.98
X90.66Y-75.78
X90.66Y-76.58
X90.66Y-77.38
X90.66Y-78.18
X90.66Y-78.98
X90.66Y-79.78
X90.66Y-80.58
X90.66Y-82.18
X90.66Y-82.98
X90.99Y-86.78
X90.99Y-93.77
X91.05Y-68.05
X91.25Y-64.97
X91.25Y-86.39
X91.44Y-83.79
X91.45Y-93.76
X91.46Y-72.58
X91.46Y-73.38
X91.46Y-74.18
X91.46Y-74.98
X91.46Y-75.78
X91.46Y-76.58
X91.46Y-77.38
X91.46Y-78.18
X91.46Y-78.98
X91.46Y-79.78
X91.46Y-80.58
X91.46Y-81.38
X91.46Y-82.18
X91.46Y-82.98
X91.47Y-62.54
X91.57Y-59.74
X91.61Y-92.52
X91.68Y-94.7
X91.725Y-91.57
X91.84Y-85.98
X91.88Y-86.48
X91.9Y-96.43
X91.93Y-60.63
X91.94Y-62.6
X91.99Y-60.03
X91.99Y-64.21
X92.05Y-95.22
X92.08Y-92.51
X92.11Y-64.67
X92.23Y-90.785
X92.26Y-71.78
X92.26Y-72.58
X92.26Y-73.38
X92.26Y-74.98
X92.26Y-75.78
X92.26Y-76.58
X92.26Y-77.38
X92.26Y-78.18
X92.26Y-78.98
X92.26Y-79.78
X92.26Y-81.38
X92.26Y-82.18
X92.26Y-82.98
X92.26Y-83.78
X92.27Y-70.99
X92.28Y-80.6
X92.3Y-94.81
X92.36Y-86.54
X92.38Y-66.86
X92.39Y-96.4
X92.5Y-89.26
X92.55Y-62.62
X92.81Y-59.72
X92.85Y-88.92
X92.9Y-64.01
X92.95Y-85.51
X93.04Y-62.6
X93.06Y-72.58
X93.06Y-73.38
X93.06Y-74.18
X93.06Y-74.98
X93.06Y-75.78
X93.06Y-76.58
X93.06Y-77.38
X93.06Y-78.18
X93.06Y-78.98
X93.06Y-79.78
X93.06Y-80.58
X93.06Y-81.38
X93.06Y-82.18
X93.06Y-82.98
X93.06Y-83.78
X93.18Y-61.25
X93.26Y-93.9
X93.27Y-96.49
X93.46Y-63.56
X93.49Y-66.89
X93.5Y-86.25
X93.66Y-61.24
X93.71Y-93.86
X93.73Y-92.135
X93.81Y-87.47
X93.84Y-81.4
X93.86Y-72.58
X93.86Y-73.38
X93.86Y-74.18
X93.86Y-74.98
X93.86Y-75.78
X93.86Y-76.58
X93.86Y-77.38
X93.86Y-78.18
X93.86Y-78.98
X93.86Y-79.78
X93.86Y-80.58
X93.86Y-82.18
X93.86Y-82.98
X93.873Y-89.977
X93.9Y-67.17
X94.0Y-62.46
X94.08Y-64.54
X94.21Y-93.76
X94.22Y-59.85
X94.23Y-90.51
X94.23Y-96.44
X94.25Y-86.61
X94.25Y-87.15
X94.44Y-61.22
X94.473Y-94.443
X94.66Y-71.78
X94.66Y-72.58
X94.66Y-73.38
X94.66Y-74.98
X94.66Y-75.78
X94.66Y-76.58
X94.66Y-77.38
X94.66Y-78.18
X94.66Y-78.98
X94.66Y-79.78
X94.66Y-80.58
X94.66Y-82.18
X94.66Y-83.78
X94.67Y-70.96
X94.69Y-66.78
X94.71Y-63.23
X94.82Y-64.55
X94.85Y-94.86
X95.02Y-96.0
X95.03Y-92.585
X95.1Y-61.11
X95.15Y-88.25
X95.46Y-74.18
X95.46Y-76.58
X95.46Y-78.98
X95.46Y-83.78
X95.47Y-86.62
X95.63Y-61.15
X95.85Y-70.93
X95.91Y-63.03
X96.17Y-86.17
X96.205Y-94.785
X96.26Y-78.98
X96.26Y-71.78
X96.32Y-76.08
X96.365Y-88.135
X96.38Y-59.88
X96.61Y-62.14
X96.66Y-78.98
X96.74Y-93.2
X96.91Y-82.15
X96.92Y-59.84
X96.93Y-64.61
X97.02Y-62.41
X97.17Y-82.69
X97.22Y-79.01
X97.26Y-76.69
X97.38Y-85.79
X97.61Y-80.88
X97.62Y-79.31
X97.71Y-78.83
X97.77Y-84.68
X97.86Y-76.8
X97.91Y-91.05
X97.93Y-92.71
X98.2Y-78.73
X98.29Y-83.19
X98.58Y-75.18
X98.61Y-79.04
X99.06Y-66.95
X99.15Y-80.43
X99.17Y-85.52
X99.2Y-88.52
X99.27Y-73.46
X99.43Y-70.535
X99.49Y-78.58
X99.69Y-79.08
X99.7Y-80.95
X99.72Y-81.99
X99.72Y-85.11
X99.73Y-88.03
X99.84Y-62.54
X99.955Y-70.61
X99.98Y-66.94
X100.07Y-79.49
X100.29Y-69.29
X100.81Y-89.46
X100.95Y-63.59
X101.05Y-83.05
X101.06Y-59.87
X101.222Y-83.977
X101.67Y-89.34
X101.696Y-70.928
X101.73Y-84.435
X101.8Y-61.65
X101.82Y-64.98
X101.926Y-70.009
X101.935Y-72.34
X101.975Y-74.85
X102.0Y-81.82
X102.01Y-71.34
X102.108Y-84.138
X102.18Y-66.33
X102.25Y-68.89
X102.265Y-66.785
X102.353Y-88.653
X102.46Y-82.97
X102.66Y-63.87
X102.67Y-77.26
X102.707Y-89.007
X102.89Y-68.78
X103.07Y-77.66
X103.12Y-68.33
X103.18Y-67.18
X103.26Y-89.5
X103.28Y-80.535
X103.465Y-72.34
X103.485Y-73.39
X103.49Y-70.95
X103.523Y-74.882
X103.66Y-84.12
X103.72Y-77.133
X103.74Y-79.02
X103.75Y-80.31
X103.835Y-76.66
X103.91Y-69.95
X104.067Y-74.337
X104.26Y-73.31
X104.54Y-89.8
X104.66Y-79.61
X104.75Y-66.76
X104.815Y-68.57
X105.09Y-89.45
X105.111Y-73.551
X105.2Y-84.13
X105.322Y-76.63
X105.33Y-79.19
X105.4Y-74.29
X105.51Y-77.07
X105.835Y-76.65
X106.04Y-67.53
X106.15Y-79.2
X106.285Y-69.98
X106.31Y-74.68
X106.7Y-84.13
X106.71Y-79.08
X106.71Y-82.81
X106.718Y-72.167
X106.73Y-75.2
X106.91Y-89.83
X107.06Y-94.12
X107.14Y-81.1
X107.24Y-79.37
X107.275Y-69.98
X107.305Y-68.22
X107.725Y-79.15
X107.815Y-75.18
X107.835Y-76.72
X108.295Y-69.99
X108.332Y-77.691
X108.48Y-75.21
X108.53Y-84.15
X108.635Y-73.66
X108.655Y-72.69
X108.665Y-71.71
X108.75Y-67.94
X108.765Y-70.12
X108.835Y-68.58
X109.005Y-70.835
X109.005Y-79.11
X109.06Y-77.11
X109.33Y-84.59
X109.47Y-76.73
X109.525Y-75.94
X109.612Y-77.683
X109.96Y-67.76
X110.06Y-74.33
X110.155Y-81.31
X110.167Y-84.17
X110.339Y-70.29
X110.43Y-87.13
X110.55Y-72.83
X110.55Y-79.66
X110.595Y-71.68
X110.705Y-82.16
X111.02Y-76.78
X111.125Y-67.493
X111.3Y-75.71
X111.53Y-83.65
X111.61Y-65.54
X112.25Y-71.15
X112.35Y-69.21
X112.35Y-73.27
X112.44Y-84.37
T2
X71.28Y-81.02
X74.71Y-66.12
X74.8Y-60.87
X76.7Y-61.07
X76.8Y-62.57
X76.82Y-60.08
X76.98Y-68.45
X77.23Y-59.72
X77.23Y-60.79
X77.39Y-68.1
X77.6Y-61.22
X77.66Y-60.17
X78.03Y-59.76
X78.15Y-60.23
X78.79Y-60.43
X78.8Y-61.19
X78.81Y-59.7
X79.39Y-83.22
X79.58Y-61.24
X79.99Y-60.77
X80.0Y-60.08
X80.41Y-59.66
X80.81Y-60.01
X80.84Y-63.06
X80.91Y-63.59
X81.2Y-61.12
X81.22Y-59.64
X81.59Y-60.03
X81.99Y-59.69
X82.4Y-61.14
X82.41Y-60.06
X82.82Y-59.67
X83.21Y-60.07
X83.61Y-59.67
X84.01Y-60.12
X84.42Y-59.73
X84.81Y-60.17
X85.22Y-59.74
X85.6Y-58.36
X86.01Y-59.71
X86.02Y-62.47
X86.42Y-60.18
X86.8Y-59.8
X87.23Y-60.2
X87.61Y-59.77
X88.02Y-60.24
X88.4Y-59.75
X88.8Y-60.34
X89.22Y-59.92
X89.75Y-59.87
X90.08Y-62.47
T3
X60.28Y-70.43
X60.33Y-69.44
X60.7Y-80.97
X60.98Y-82.54
X60.98Y-83.54
X61.78Y-84.34
X62.53Y-86.99
X62.65Y-68.49
X62.97Y-80.09
X63.08Y-84.21
X63.36Y-83.07
X64.03Y-86.15
X64.52Y-66.29
X64.9Y-70.61
X65.18Y-67.985
X65.83Y-70.64
X67.205Y-65.375
X67.43Y-93.16
X67.545Y-66.365
X67.87Y-61.36
X68.31Y-70.2
X68.955Y-65.06
X69.05Y-64.29
X69.155Y-69.735
X70.295Y-63.865
X70.35Y-77.51
X70.365Y-69.735
X70.945Y-69.635
X71.305Y-63.81
X71.405Y-66.275
X71.48Y-59.41
X71.535Y-61.285
X71.835Y-67.205
X71.925Y-69.33
X71.945Y-68.035
X72.685Y-69.055
X72.775Y-70.16
X72.85Y-89.83
X72.85Y-90.83
X72.855Y-88.835
X73.455Y-67.685
X73.73Y-86.31
X73.77Y-76.05
X74.65Y-67.13
X74.84Y-78.61
X76.15Y-88.83
X76.15Y-89.83
X76.15Y-90.83
X76.54Y-67.57
X77.09Y-67.58
X77.39Y-64.92
X77.46Y-63.41
X77.74Y-67.53
X78.92Y-88.93
X79.16Y-67.46
X80.11Y-67.45
X80.83Y-85.52
X81.31Y-83.39
X81.38Y-85.14
X81.45Y-86.34
X81.59Y-87.0
X84.01Y-94.78
X87.53Y-93.87
X88.26Y-85.82
X94.98Y-96.935
X95.52Y-86.12
X95.75Y-64.02
X96.21Y-85.11
X96.56Y-80.82
X96.66Y-76.81
X96.71Y-74.21
X97.23Y-84.14
X97.33Y-74.28
X98.0Y-72.82
X98.26Y-63.75
X98.775Y-72.805
X98.83Y-72.14
X98.86Y-96.64
X99.0Y-91.23
X99.31Y-74.63
X99.82Y-94.13
X100.76Y-96.6
X101.88Y-85.57
X102.39Y-59.18
X103.33Y-93.0
X103.47Y-85.52
X103.59Y-91.24
X103.75Y-60.71
X104.01Y-94.66
X104.78Y-85.59
X105.41Y-59.41
X105.43Y-87.13
X105.69Y-93.84
X106.61Y-84.76
X106.9Y-60.34
X109.16Y-87.12
X109.53Y-81.435
X110.08Y-81.84
X111.205Y-77.585
X111.275Y-74.62
X111.51Y-79.67
X112.41Y-75.59
X112.41Y-76.46
X112.45Y-74.58
T5
X62.71Y-60.98
X62.71Y-93.98
X110.71Y-60.98
X110.71Y-93.98
T4
G00X96.982Y-90.539
M15
G01X96.982Y-91.639
M16
G05
G00X96.982Y-94.969
M15
G01X96.982Y-95.569
M16
G05
G00X105.618Y-90.539
M15
G01X105.618Y-91.639
M16
G05
G00X105.618Y-94.969
M15
G01X105.618Y-95.569
M16
G05
M30
