G04 #@! TF.GenerationSoftware,KiCad,Pcbnew,9.0.2+dfsg-1*
G04 #@! TF.CreationDate,2025-11-26T16:26:47+01:00*
G04 #@! TF.ProjectId,ulx5m-gs,756c7835-6d2d-4677-932e-6b696361645f,rev?*
G04 #@! TF.SameCoordinates,Original*
G04 #@! TF.FileFunction,Soldermask,Bot*
G04 #@! TF.FilePolarity,Negative*
%FSLAX46Y46*%
G04 Gerber Fmt 4.6, Leading zero omitted, Abs format (unit mm)*
G04 Created by KiCad (PCBNEW 9.0.2+dfsg-1) date 2025-11-26 16:26:47*
%MOMM*%
%LPD*%
G01*
G04 APERTURE LIST*
G04 Aperture macros list*
%AMRoundRect*
0 Rectangle with rounded corners*
0 $1 Rounding radius*
0 $2 $3 $4 $5 $6 $7 $8 $9 X,Y pos of 4 corners*
0 Add a 4 corners polygon primitive as box body*
4,1,4,$2,$3,$4,$5,$6,$7,$8,$9,$2,$3,0*
0 Add four circle primitives for the rounded corners*
1,1,$1+$1,$2,$3*
1,1,$1+$1,$4,$5*
1,1,$1+$1,$6,$7*
1,1,$1+$1,$8,$9*
0 Add four rect primitives between the rounded corners*
20,1,$1+$1,$2,$3,$4,$5,0*
20,1,$1+$1,$4,$5,$6,$7,0*
20,1,$1+$1,$6,$7,$8,$9,0*
20,1,$1+$1,$8,$9,$2,$3,0*%
%AMFreePoly0*
4,1,23,0.500000,-0.750000,0.000000,-0.750000,0.000000,-0.745722,-0.065263,-0.745722,-0.191342,-0.711940,-0.304381,-0.646677,-0.396677,-0.554381,-0.461940,-0.441342,-0.495722,-0.315263,-0.495722,-0.250000,-0.500000,-0.250000,-0.500000,0.250000,-0.495722,0.250000,-0.495722,0.315263,-0.461940,0.441342,-0.396677,0.554381,-0.304381,0.646677,-0.191342,0.711940,-0.065263,0.745722,0.000000,0.745722,
0.000000,0.750000,0.500000,0.750000,0.500000,-0.750000,0.500000,-0.750000,$1*%
%AMFreePoly1*
4,1,23,0.000000,0.745722,0.065263,0.745722,0.191342,0.711940,0.304381,0.646677,0.396677,0.554381,0.461940,0.441342,0.495722,0.315263,0.495722,0.250000,0.500000,0.250000,0.500000,-0.250000,0.495722,-0.250000,0.495722,-0.315263,0.461940,-0.441342,0.396677,-0.554381,0.304381,-0.646677,0.191342,-0.711940,0.065263,-0.745722,0.000000,-0.745722,0.000000,-0.750000,-0.500000,-0.750000,
-0.500000,0.750000,0.000000,0.750000,0.000000,0.745722,0.000000,0.745722,$1*%
G04 Aperture macros list end*
%ADD10C,4.700000*%
%ADD11C,0.650000*%
%ADD12O,1.000000X1.600000*%
%ADD13O,1.000000X2.100000*%
%ADD14RoundRect,0.200000X0.275000X-0.200000X0.275000X0.200000X-0.275000X0.200000X-0.275000X-0.200000X0*%
%ADD15RoundRect,0.140000X-0.140000X-0.170000X0.140000X-0.170000X0.140000X0.170000X-0.140000X0.170000X0*%
%ADD16RoundRect,0.140000X0.140000X0.170000X-0.140000X0.170000X-0.140000X-0.170000X0.140000X-0.170000X0*%
%ADD17RoundRect,0.140000X-0.170000X0.140000X-0.170000X-0.140000X0.170000X-0.140000X0.170000X0.140000X0*%
%ADD18RoundRect,0.140000X0.170000X-0.140000X0.170000X0.140000X-0.170000X0.140000X-0.170000X-0.140000X0*%
%ADD19RoundRect,0.135000X0.185000X-0.135000X0.185000X0.135000X-0.185000X0.135000X-0.185000X-0.135000X0*%
%ADD20RoundRect,0.150000X0.200000X-0.150000X0.200000X0.150000X-0.200000X0.150000X-0.200000X-0.150000X0*%
%ADD21RoundRect,0.135000X-0.135000X-0.185000X0.135000X-0.185000X0.135000X0.185000X-0.135000X0.185000X0*%
%ADD22RoundRect,0.218750X-0.256250X0.218750X-0.256250X-0.218750X0.256250X-0.218750X0.256250X0.218750X0*%
%ADD23RoundRect,0.250000X-0.375000X-0.850000X0.375000X-0.850000X0.375000X0.850000X-0.375000X0.850000X0*%
%ADD24RoundRect,0.135000X-0.185000X0.135000X-0.185000X-0.135000X0.185000X-0.135000X0.185000X0.135000X0*%
%ADD25RoundRect,0.200000X-0.200000X-0.275000X0.200000X-0.275000X0.200000X0.275000X-0.200000X0.275000X0*%
%ADD26FreePoly0,0.000000*%
%ADD27FreePoly1,0.000000*%
%ADD28C,1.000000*%
%ADD29RoundRect,0.135000X0.135000X0.185000X-0.135000X0.185000X-0.135000X-0.185000X0.135000X-0.185000X0*%
%ADD30RoundRect,0.102000X0.115000X0.330000X-0.115000X0.330000X-0.115000X-0.330000X0.115000X-0.330000X0*%
%ADD31RoundRect,0.102000X0.175000X0.330000X-0.175000X0.330000X-0.175000X-0.330000X0.175000X-0.330000X0*%
%ADD32RoundRect,0.150000X-0.200000X0.150000X-0.200000X-0.150000X0.200000X-0.150000X0.200000X0.150000X0*%
%ADD33RoundRect,0.218750X0.256250X-0.218750X0.256250X0.218750X-0.256250X0.218750X-0.256250X-0.218750X0*%
%ADD34RoundRect,0.150000X0.512500X0.150000X-0.512500X0.150000X-0.512500X-0.150000X0.512500X-0.150000X0*%
%ADD35RoundRect,0.150000X-0.512500X-0.150000X0.512500X-0.150000X0.512500X0.150000X-0.512500X0.150000X0*%
%ADD36RoundRect,0.218750X-0.218750X-0.256250X0.218750X-0.256250X0.218750X0.256250X-0.218750X0.256250X0*%
%ADD37RoundRect,0.100000X0.100000X-0.155000X0.100000X0.155000X-0.100000X0.155000X-0.100000X-0.155000X0*%
%ADD38RoundRect,0.065500X0.196500X-0.556500X0.196500X0.556500X-0.196500X0.556500X-0.196500X-0.556500X0*%
%ADD39RoundRect,0.050500X0.451500X-0.151500X0.451500X0.151500X-0.451500X0.151500X-0.451500X-0.151500X0*%
%ADD40RoundRect,0.200000X0.200000X0.275000X-0.200000X0.275000X-0.200000X-0.275000X0.200000X-0.275000X0*%
%ADD41R,1.200000X1.400000*%
%ADD42RoundRect,0.250000X0.375000X0.850000X-0.375000X0.850000X-0.375000X-0.850000X0.375000X-0.850000X0*%
%ADD43RoundRect,0.200000X0.200000X0.250000X-0.200000X0.250000X-0.200000X-0.250000X0.200000X-0.250000X0*%
%ADD44C,0.450000*%
G04 #@! TA.AperFunction,Profile*
%ADD45C,0.100000*%
G04 #@! TD*
G04 APERTURE END LIST*
D10*
X62710000Y-93980000D03*
X110710000Y-60980000D03*
D11*
X98410000Y-91618750D03*
X104190000Y-91618750D03*
D12*
X96982000Y-95268750D03*
D13*
X96982000Y-91088750D03*
X105618000Y-91088750D03*
D12*
X105618000Y-95268750D03*
D10*
X110710000Y-93980000D03*
X62710000Y-60980000D03*
D14*
X99210000Y-64180000D03*
X99210000Y-62530000D03*
D15*
X84970000Y-75410000D03*
X85930000Y-75410000D03*
X88210000Y-77610000D03*
X89170000Y-77610000D03*
X91440000Y-77580000D03*
X92400000Y-77580000D03*
D16*
X96610000Y-84550000D03*
X95650000Y-84550000D03*
D17*
X96240000Y-77430000D03*
X96240000Y-78390000D03*
D18*
X110090000Y-83600000D03*
X110090000Y-82640000D03*
D19*
X110310000Y-78700000D03*
X110310000Y-77680000D03*
D14*
X112370000Y-85185000D03*
X112370000Y-83535000D03*
D18*
X73460000Y-83620000D03*
X73460000Y-82660000D03*
X99660000Y-74110000D03*
X99660000Y-73150000D03*
D20*
X94620000Y-87640000D03*
X94620000Y-89040000D03*
D17*
X94670000Y-84410000D03*
X94670000Y-85370000D03*
D21*
X85800000Y-86680000D03*
X86820000Y-86680000D03*
D22*
X109440000Y-65730000D03*
X109440000Y-67305000D03*
D15*
X88210000Y-79460000D03*
X89170000Y-79460000D03*
D17*
X89670000Y-68160000D03*
X89670000Y-69120000D03*
D19*
X95700000Y-96695000D03*
X95700000Y-95675000D03*
D15*
X67140000Y-81840000D03*
X68100000Y-81840000D03*
D19*
X73990000Y-91120000D03*
X73990000Y-90100000D03*
D18*
X95000000Y-64060000D03*
X95000000Y-63100000D03*
X77230000Y-81000000D03*
X77230000Y-80040000D03*
D16*
X92270000Y-74040000D03*
X91310000Y-74040000D03*
X103160000Y-80060000D03*
X102200000Y-80060000D03*
D17*
X107285000Y-68570000D03*
X107285000Y-69530000D03*
D21*
X100260000Y-80340000D03*
X101280000Y-80340000D03*
D16*
X109970000Y-71720000D03*
X109010000Y-71720000D03*
D23*
X105505000Y-82680000D03*
X107655000Y-82680000D03*
D24*
X79410000Y-84110000D03*
X79410000Y-85130000D03*
D25*
X99985000Y-82470000D03*
X101635000Y-82470000D03*
D26*
X76580000Y-84510000D03*
D27*
X77880000Y-84510000D03*
D16*
X97540000Y-82150000D03*
X96580000Y-82150000D03*
D17*
X106295000Y-68570000D03*
X106295000Y-69530000D03*
D18*
X77610000Y-69410000D03*
X77610000Y-68450000D03*
D17*
X80400000Y-84070000D03*
X80400000Y-85030000D03*
D15*
X91440000Y-80440000D03*
X92400000Y-80440000D03*
D19*
X80140000Y-67010000D03*
X80140000Y-65990000D03*
D18*
X97540000Y-74060000D03*
X97540000Y-73100000D03*
X96270000Y-80220000D03*
X96270000Y-79260000D03*
D28*
X107130000Y-73590000D03*
D18*
X88590000Y-67160000D03*
X88590000Y-66200000D03*
D15*
X91440000Y-79460000D03*
X92400000Y-79460000D03*
D18*
X65880000Y-67220000D03*
X65880000Y-66260000D03*
D24*
X72230000Y-82610000D03*
X72230000Y-83630000D03*
D18*
X106835000Y-76430000D03*
X106835000Y-75470000D03*
X74300000Y-81000000D03*
X74300000Y-80040000D03*
D17*
X92210000Y-84500000D03*
X92210000Y-85460000D03*
D16*
X102410000Y-59640000D03*
X101450000Y-59640000D03*
X109970000Y-72690000D03*
X109010000Y-72690000D03*
D14*
X69495001Y-65642000D03*
X69495001Y-63992000D03*
D29*
X112110000Y-81240000D03*
X111090000Y-81240000D03*
D19*
X65910000Y-69430000D03*
X65910000Y-68410000D03*
D17*
X101410000Y-62590000D03*
X101410000Y-63550000D03*
D30*
X94010000Y-93125000D03*
X94010000Y-95835000D03*
X93610000Y-93125000D03*
X93610000Y-95835000D03*
X93210000Y-93125000D03*
X93210000Y-95835000D03*
X92810000Y-93125000D03*
X92810000Y-95835000D03*
X92410000Y-93125000D03*
X92410000Y-95835000D03*
X92010000Y-93125000D03*
X92010000Y-95835000D03*
X91610000Y-93125000D03*
X91610000Y-95835000D03*
X91210000Y-93125000D03*
X91210000Y-95835000D03*
X90810000Y-93125000D03*
X90810000Y-95835000D03*
X90410000Y-93125000D03*
X90410000Y-95835000D03*
X90010000Y-93125000D03*
X90010000Y-95835000D03*
X89610000Y-93125000D03*
X89610000Y-95835000D03*
X89210000Y-93125000D03*
X89210000Y-95835000D03*
X88810000Y-93125000D03*
X88810000Y-95835000D03*
X88410000Y-93125000D03*
X88410000Y-95835000D03*
X88010000Y-93125000D03*
X88010000Y-95835000D03*
X87610000Y-93125000D03*
X87610000Y-95835000D03*
X87210000Y-93125000D03*
X87210000Y-95835000D03*
X86810000Y-93125000D03*
X86810000Y-95835000D03*
X86410000Y-93125000D03*
X86410000Y-95835000D03*
X86010000Y-93125000D03*
X86010000Y-95835000D03*
X85610000Y-93125000D03*
X85610000Y-95835000D03*
X85210000Y-93125000D03*
X85210000Y-95835000D03*
X84810000Y-93125000D03*
X84810000Y-95835000D03*
X84410000Y-93125000D03*
X84410000Y-95835000D03*
X84010000Y-93125000D03*
X84010000Y-95835000D03*
X83610000Y-93125000D03*
X83610000Y-95835000D03*
X83210000Y-93125000D03*
X83210000Y-95835000D03*
X82810000Y-93125000D03*
X82810000Y-95835000D03*
X82410000Y-93125000D03*
X82410000Y-95835000D03*
X82010000Y-93125000D03*
X82010000Y-95835000D03*
X81610000Y-93125000D03*
X81610000Y-95835000D03*
X81210000Y-93125000D03*
X81210000Y-95835000D03*
X80810000Y-93125000D03*
X80810000Y-95835000D03*
X80410000Y-93125000D03*
X80410000Y-95835000D03*
X80010000Y-93125000D03*
X80010000Y-95835000D03*
X79610000Y-93125000D03*
X79610000Y-95835000D03*
X79210000Y-93125000D03*
X79210000Y-95835000D03*
X78810000Y-93125000D03*
X78810000Y-95835000D03*
X78410000Y-93125000D03*
X78410000Y-95835000D03*
X78010000Y-93125000D03*
X78010000Y-95835000D03*
X77610000Y-93125000D03*
X77610000Y-95835000D03*
X77210000Y-93125000D03*
X77210000Y-95835000D03*
X76810000Y-93125000D03*
X76810000Y-95835000D03*
X76410000Y-93125000D03*
X76410000Y-95835000D03*
X76010000Y-93125000D03*
X76010000Y-95835000D03*
X75610000Y-93125000D03*
X75610000Y-95835000D03*
X75210000Y-93125000D03*
X75210000Y-95835000D03*
X74810000Y-93125000D03*
X74810000Y-95835000D03*
X74410000Y-93125000D03*
X74410000Y-95835000D03*
D31*
X94485000Y-93125000D03*
X94485000Y-95835000D03*
X73935000Y-93125000D03*
X73935000Y-95835000D03*
D24*
X94020000Y-65380000D03*
X94020000Y-66400000D03*
D15*
X88210000Y-78540000D03*
X89170000Y-78540000D03*
D17*
X70560000Y-82650000D03*
X70560000Y-83610000D03*
X109275000Y-68580000D03*
X109275000Y-69540000D03*
D29*
X62440000Y-82540000D03*
X61420000Y-82540000D03*
D24*
X66920000Y-68400000D03*
X66920000Y-69420000D03*
D32*
X103650000Y-87417500D03*
X103650000Y-86017500D03*
D29*
X111130000Y-85530000D03*
X110110000Y-85530000D03*
D18*
X67200000Y-87150000D03*
X67200000Y-86190000D03*
X100630000Y-72280000D03*
X100630000Y-71320000D03*
D17*
X77820000Y-64000000D03*
X77820000Y-64960000D03*
D18*
X88210000Y-82230000D03*
X88210000Y-81270000D03*
D21*
X85610000Y-83130000D03*
X86630000Y-83130000D03*
D17*
X96270000Y-61150000D03*
X96270000Y-62110000D03*
D18*
X83600000Y-84770000D03*
X83600000Y-83810000D03*
X76230000Y-80990000D03*
X76230000Y-80030000D03*
D33*
X111365000Y-73837500D03*
X111365000Y-72262500D03*
D18*
X89150000Y-82240000D03*
X89150000Y-81280000D03*
D16*
X86760000Y-80340000D03*
X85800000Y-80340000D03*
D24*
X92380000Y-87650000D03*
X92380000Y-88670000D03*
D19*
X91110000Y-91530000D03*
X91110000Y-90510000D03*
D23*
X61340000Y-66320000D03*
X63490000Y-66320000D03*
D29*
X82340000Y-86000000D03*
X81320000Y-86000000D03*
D15*
X88180000Y-76690000D03*
X89140000Y-76690000D03*
D18*
X108795000Y-76430000D03*
X108795000Y-75470000D03*
D16*
X112608750Y-67390000D03*
X111648750Y-67390000D03*
D32*
X102200000Y-87407500D03*
X102200000Y-86007500D03*
D29*
X62440000Y-83550000D03*
X61420000Y-83550000D03*
D18*
X94030000Y-64050000D03*
X94030000Y-63090000D03*
D28*
X99940000Y-58830000D03*
D16*
X101270000Y-81280000D03*
X100310000Y-81280000D03*
D24*
X106110000Y-77680000D03*
X106110000Y-78700000D03*
X87590000Y-83140000D03*
X87590000Y-84160000D03*
D34*
X106107500Y-59400000D03*
X106107500Y-60350000D03*
X106107500Y-61300000D03*
X103832500Y-61300000D03*
X103832500Y-59400000D03*
D17*
X91250000Y-84500000D03*
X91250000Y-85460000D03*
D19*
X109320000Y-78710000D03*
X109320000Y-77690000D03*
D21*
X72520000Y-64260000D03*
X73540000Y-64260000D03*
D18*
X109050000Y-83600000D03*
X109050000Y-82640000D03*
D16*
X86760000Y-77570000D03*
X85800000Y-77570000D03*
D19*
X93390000Y-88660000D03*
X93390000Y-87640000D03*
D15*
X91430000Y-76660000D03*
X92390000Y-76660000D03*
D16*
X86770000Y-76650000D03*
X85810000Y-76650000D03*
D18*
X96290000Y-64000000D03*
X96290000Y-63040000D03*
D24*
X92020000Y-65380000D03*
X92020000Y-66400000D03*
D15*
X102235000Y-73360000D03*
X103195000Y-73360000D03*
D35*
X105400000Y-86790000D03*
X105400000Y-85840000D03*
X105400000Y-84890000D03*
X107675000Y-84890000D03*
X107675000Y-86790000D03*
D19*
X70070000Y-93110000D03*
X70070000Y-92090000D03*
D24*
X69560000Y-82610000D03*
X69560000Y-83630000D03*
D29*
X95070000Y-83060000D03*
X94050000Y-83060000D03*
D36*
X106272500Y-67060000D03*
X107847500Y-67060000D03*
D15*
X102235000Y-72360000D03*
X103195000Y-72360000D03*
D29*
X99190000Y-84740000D03*
X98170000Y-84740000D03*
D28*
X97110000Y-87320000D03*
D29*
X112115000Y-82240000D03*
X111095000Y-82240000D03*
D15*
X91440000Y-78500000D03*
X92400000Y-78500000D03*
D16*
X82750000Y-72120000D03*
X81790000Y-72120000D03*
D18*
X64900000Y-67220000D03*
X64900000Y-66260000D03*
D24*
X71515001Y-64327000D03*
X71515001Y-65347000D03*
D37*
X103260000Y-66195000D03*
X104260000Y-66195000D03*
X103760000Y-67485000D03*
D18*
X72160000Y-77410000D03*
X72160000Y-76450000D03*
D24*
X101930000Y-60600000D03*
X101930000Y-61620000D03*
D37*
X99500000Y-66255000D03*
X100500000Y-66255000D03*
X100000000Y-67545000D03*
D24*
X107110000Y-77680000D03*
X107110000Y-78700000D03*
D38*
X71855000Y-87630000D03*
X71055000Y-87630000D03*
X70255000Y-87630000D03*
X69455000Y-87630000D03*
X69455000Y-84940000D03*
X70255000Y-84940000D03*
X71055000Y-84940000D03*
X71855000Y-84940000D03*
D39*
X71455000Y-86285000D03*
X69855000Y-86285000D03*
D15*
X102315000Y-69290000D03*
X103275000Y-69290000D03*
D16*
X86760000Y-78490000D03*
X85800000Y-78490000D03*
X96280000Y-71430000D03*
X95320000Y-71430000D03*
D17*
X64830000Y-83500000D03*
X64830000Y-84460000D03*
D21*
X101895000Y-84835000D03*
X102915000Y-84835000D03*
D16*
X68850000Y-77960000D03*
X67890000Y-77960000D03*
D15*
X62005000Y-84820000D03*
X62965000Y-84820000D03*
D16*
X63560000Y-86130000D03*
X62600000Y-86130000D03*
D15*
X102315000Y-70290000D03*
X103275000Y-70290000D03*
D18*
X74205000Y-67215000D03*
X74205000Y-66255000D03*
D19*
X87410000Y-90540000D03*
X87410000Y-89520000D03*
X86410000Y-91670000D03*
X86410000Y-90650000D03*
D18*
X63360000Y-82550000D03*
X63360000Y-81590000D03*
D15*
X92230000Y-75010000D03*
X93190000Y-75010000D03*
D40*
X98225000Y-83340000D03*
X96575000Y-83340000D03*
D19*
X78130000Y-67020000D03*
X78130000Y-66000000D03*
D17*
X99870000Y-86650000D03*
X99870000Y-87610000D03*
D19*
X94955000Y-91045000D03*
X94955000Y-90025000D03*
D15*
X102305000Y-74820000D03*
X103265000Y-74820000D03*
D24*
X105110000Y-77690000D03*
X105110000Y-78710000D03*
D29*
X67340000Y-64385000D03*
X66320000Y-64385000D03*
D21*
X95695000Y-92810000D03*
X96715000Y-92810000D03*
D18*
X97550000Y-63430000D03*
X97550000Y-62470000D03*
X64830000Y-82540000D03*
X64830000Y-81580000D03*
D19*
X100380000Y-61390000D03*
X100380000Y-60370000D03*
D41*
X102650000Y-76330000D03*
X102650000Y-78530000D03*
X100950000Y-78530000D03*
X100950000Y-76330000D03*
D24*
X95020000Y-65390000D03*
X95020000Y-66410000D03*
D40*
X98705000Y-86000000D03*
X97055000Y-86000000D03*
D21*
X72535000Y-63210000D03*
X73555000Y-63210000D03*
D19*
X109160000Y-85590000D03*
X109160000Y-84570000D03*
D30*
X94010000Y-59125000D03*
X94010000Y-61835000D03*
X93610000Y-59125000D03*
X93610000Y-61835000D03*
X93210000Y-59125000D03*
X93210000Y-61835000D03*
X92810000Y-59125000D03*
X92810000Y-61835000D03*
X92410000Y-59125000D03*
X92410000Y-61835000D03*
X92010000Y-59125000D03*
X92010000Y-61835000D03*
X91610000Y-59125000D03*
X91610000Y-61835000D03*
X91210000Y-59125000D03*
X91210000Y-61835000D03*
X90810000Y-59125000D03*
X90810000Y-61835000D03*
X90410000Y-59125000D03*
X90410000Y-61835000D03*
X90010000Y-59125000D03*
X90010000Y-61835000D03*
X89610000Y-59125000D03*
X89610000Y-61835000D03*
X89210000Y-59125000D03*
X89210000Y-61835000D03*
X88810000Y-59125000D03*
X88810000Y-61835000D03*
X88410000Y-59125000D03*
X88410000Y-61835000D03*
X88010000Y-59125000D03*
X88010000Y-61835000D03*
X87610000Y-59125000D03*
X87610000Y-61835000D03*
X87210000Y-59125000D03*
X87210000Y-61835000D03*
X86810000Y-59125000D03*
X86810000Y-61835000D03*
X86410000Y-59125000D03*
X86410000Y-61835000D03*
X86010000Y-59125000D03*
X86010000Y-61835000D03*
X85610000Y-59125000D03*
X85610000Y-61835000D03*
X85210000Y-59125000D03*
X85210000Y-61835000D03*
X84810000Y-59125000D03*
X84810000Y-61835000D03*
X84410000Y-59125000D03*
X84410000Y-61835000D03*
X84010000Y-59125000D03*
X84010000Y-61835000D03*
X83610000Y-59125000D03*
X83610000Y-61835000D03*
X83210000Y-59125000D03*
X83210000Y-61835000D03*
X82810000Y-59125000D03*
X82810000Y-61835000D03*
X82410000Y-59125000D03*
X82410000Y-61835000D03*
X82010000Y-59125000D03*
X82010000Y-61835000D03*
X81610000Y-59125000D03*
X81610000Y-61835000D03*
X81210000Y-59125000D03*
X81210000Y-61835000D03*
X80810000Y-59125000D03*
X80810000Y-61835000D03*
X80410000Y-59125000D03*
X80410000Y-61835000D03*
X80010000Y-59125000D03*
X80010000Y-61835000D03*
X79610000Y-59125000D03*
X79610000Y-61835000D03*
X79210000Y-59125000D03*
X79210000Y-61835000D03*
X78810000Y-59125000D03*
X78810000Y-61835000D03*
X78410000Y-59125000D03*
X78410000Y-61835000D03*
X78010000Y-59125000D03*
X78010000Y-61835000D03*
X77610000Y-59125000D03*
X77610000Y-61835000D03*
X77210000Y-59125000D03*
X77210000Y-61835000D03*
X76810000Y-59125000D03*
X76810000Y-61835000D03*
X76410000Y-59125000D03*
X76410000Y-61835000D03*
X76010000Y-59125000D03*
X76010000Y-61835000D03*
X75610000Y-59125000D03*
X75610000Y-61835000D03*
X75210000Y-59125000D03*
X75210000Y-61835000D03*
X74810000Y-59125000D03*
X74810000Y-61835000D03*
X74410000Y-59125000D03*
X74410000Y-61835000D03*
D31*
X94485000Y-59125000D03*
X94485000Y-61835000D03*
X73935000Y-59125000D03*
X73935000Y-61835000D03*
D42*
X105955000Y-63490000D03*
X103805000Y-63490000D03*
D18*
X99650000Y-72280000D03*
X99650000Y-71320000D03*
X87250000Y-82200000D03*
X87250000Y-81240000D03*
D24*
X76110000Y-66010000D03*
X76110000Y-67030000D03*
D17*
X97220000Y-77430000D03*
X97220000Y-78390000D03*
D19*
X79130000Y-67010000D03*
X79130000Y-65990000D03*
D25*
X67055000Y-67190000D03*
X68705000Y-67190000D03*
D15*
X88210000Y-80380000D03*
X89170000Y-80380000D03*
D32*
X91140000Y-89420000D03*
X91140000Y-88020000D03*
D28*
X103620000Y-82940000D03*
D15*
X109100000Y-86550000D03*
X110060000Y-86550000D03*
D17*
X102400000Y-62590000D03*
X102400000Y-63550000D03*
X98200000Y-77430000D03*
X98200000Y-78390000D03*
D16*
X86760000Y-79420000D03*
X85800000Y-79420000D03*
D43*
X112383750Y-68635000D03*
X112383750Y-70485000D03*
X110933750Y-70485000D03*
X110933750Y-68635000D03*
D18*
X76510000Y-69410000D03*
X76510000Y-68450000D03*
D16*
X109980000Y-73660000D03*
X109020000Y-73660000D03*
D18*
X71050000Y-77450000D03*
X71050000Y-76490000D03*
D17*
X108285000Y-68580000D03*
X108285000Y-69540000D03*
D19*
X108110000Y-78700000D03*
X108110000Y-77680000D03*
D24*
X71790000Y-92050000D03*
X71790000Y-93070000D03*
X104110000Y-77690000D03*
X104110000Y-78710000D03*
D18*
X73180000Y-80990000D03*
X73180000Y-80030000D03*
D17*
X82360000Y-84070000D03*
X82360000Y-85030000D03*
D19*
X95705000Y-94770000D03*
X95705000Y-93750000D03*
D24*
X93020000Y-65380000D03*
X93020000Y-66400000D03*
D35*
X61190000Y-70410000D03*
X61190000Y-69460000D03*
X61190000Y-68510000D03*
X63465000Y-68510000D03*
X63465000Y-70410000D03*
D28*
X67335000Y-71230000D03*
D16*
X82510000Y-75320000D03*
X81550000Y-75320000D03*
X92390000Y-81430000D03*
X91430000Y-81430000D03*
X74140000Y-76470000D03*
X73180000Y-76470000D03*
D18*
X107815000Y-76430000D03*
X107815000Y-75470000D03*
D29*
X104670000Y-89070000D03*
X103650000Y-89070000D03*
D17*
X84860000Y-80540000D03*
X84860000Y-81500000D03*
D16*
X74150000Y-77450000D03*
X73190000Y-77450000D03*
D29*
X73540000Y-65285000D03*
X72520000Y-65285000D03*
D16*
X74100000Y-78410000D03*
X73140000Y-78410000D03*
D21*
X84450000Y-91920000D03*
X85470000Y-91920000D03*
D15*
X64880000Y-70330000D03*
X65840000Y-70330000D03*
D28*
X111570000Y-87070000D03*
D17*
X81380000Y-84060000D03*
X81380000Y-85020000D03*
D29*
X72810000Y-69890000D03*
X71790000Y-69890000D03*
D44*
X72855000Y-88835000D03*
X76150000Y-88830000D03*
X76150000Y-90830000D03*
X72850000Y-90830000D03*
X76150000Y-89830000D03*
X72850000Y-89830000D03*
D45*
X62710000Y-57480000D02*
X110710000Y-57480000D01*
X62710000Y-97480000D02*
X110710000Y-97480000D01*
X114210000Y-93980000D02*
G75*
G02*
X110710000Y-97480000I-3500000J0D01*
G01*
X110710000Y-57480000D02*
G75*
G02*
X114210000Y-60980000I0J-3500000D01*
G01*
X114210000Y-93980000D02*
X114210000Y-60980000D01*
X59210000Y-60980000D02*
G75*
G02*
X62710000Y-57480000I3500000J0D01*
G01*
X62710000Y-97480000D02*
G75*
G02*
X59210000Y-93980000I0J3500000D01*
G01*
X59210000Y-60980000D02*
X59210000Y-93980000D01*
M02*
